if (_typeface_js && _typeface_js.loadFace) _typeface_js.loadFace({"glyphs":{"0":{"ha":779,"x_min":0,"x_max":0,"o":"m 319 -12 b 964 744 694 -12 964 499 b 747 964 964 883 885 964 b 103 207 367 964 103 442 b 319 -12 103 68 181 -12 z m 814 768 b 353 69 814 500 538 69 b 258 190 268 69 258 143 b 721 890 258 447 532 890 b 814 768 804 890 814 815 z "},"1":{"ha":363,"x_min":0,"x_max":0,"o":"m 232 93 b 690 901 257 207 632 826 b 708 936 690 901 708 919 b 667 958 708 947 699 958 b 307 788 557 958 307 851 b 410 729 307 761 410 793 b 397 682 410 717 406 701 b -4 42 218 343 51 83 b -11 26 -4 42 -11 35 b 113 -7 -11 13 8 -7 b 226 36 199 -7 226 8 b 225 53 226 46 225 47 b 232 93 225 58 226 68 z "},"2":{"ha":746,"x_min":0,"x_max":0,"o":"m 293 124 b 1004 849 293 338 1004 608 b 857 968 1004 957 857 968 b 682 946 738 968 682 946 b 578 978 656 967 619 978 b 374 711 524 974 375 728 l 374 710 b 399 696 374 701 385 696 b 453 721 411 696 419 696 b 740 871 453 721 575 871 b 807 815 750 871 807 867 b 11 25 807 649 113 379 b 10 15 10 21 10 18 b 68 -4 10 0 25 -4 b 332 1 117 -4 199 1 b 565 -4 438 1 426 -4 b 775 301 622 -4 771 265 b 754 315 775 310 769 315 b 701 292 742 315 724 314 b 371 82 701 292 549 82 b 293 124 343 82 293 88 z "},"3":{"ha":707,"x_min":0,"x_max":0,"o":"m 593 393 b 310 71 593 226 432 71 b 219 168 242 71 219 115 b 271 353 219 236 254 319 b 272 357 272 354 272 356 b 251 368 272 368 251 368 b 29 56 163 368 32 90 l 29 53 b 303 -10 29 22 56 -10 b 751 378 506 -10 751 153 b 654 536 751 514 654 500 l 654 538 b 968 829 657 578 968 599 b 822 963 968 883 922 963 b 682 940 706 963 682 940 b 590 969 661 958 619 969 l 581 969 b 414 751 531 965 415 767 l 414 749 b 436 736 414 738 424 736 b 485 758 446 736 468 736 b 725 874 485 758 576 874 b 808 799 768 874 808 854 b 444 594 803 724 699 594 b 374 521 415 594 374 556 b 390 507 374 515 375 507 b 593 393 460 507 593 492 z "},"4":{"ha":721,"x_min":0,"x_max":0,"o":"m 1024 936 b 942 960 1024 951 1017 960 b 794 932 899 960 839 956 b 126 304 642 854 126 432 b 436 246 126 254 279 246 l 469 246 b 328 22 363 71 328 39 b 424 -7 328 8 340 -7 b 524 32 494 -7 511 -1 b 546 93 532 54 538 74 b 624 249 557 121 585 178 l 681 249 b 765 328 736 249 765 313 b 751 346 765 346 760 346 l 750 346 b 675 342 743 344 715 343 b 1006 901 797 564 967 851 b 1024 936 1006 901 1024 924 z m 742 728 b 526 340 653 561 583 436 b 332 392 426 344 332 357 b 729 765 332 472 638 765 b 746 747 743 765 746 756 b 742 728 746 738 742 728 z "},"5":{"ha":661,"x_min":0,"x_max":0,"o":"m 932 971 b 811 949 853 971 811 949 b 663 954 749 953 700 954 b 539 943 557 954 539 943 b 282 553 503 943 283 574 l 282 549 b 299 535 282 543 283 535 b 431 553 299 535 364 553 b 575 451 501 553 575 533 b 307 79 575 296 429 79 b 218 171 239 79 218 121 b 272 357 218 256 272 353 b 251 368 272 368 251 368 b 29 54 164 368 29 89 b 253 -10 29 24 65 -10 b 735 482 547 -10 735 307 b 558 640 735 618 597 640 b 467 631 518 640 486 631 b 446 651 453 631 446 635 b 632 807 446 651 507 807 b 808 796 703 807 764 796 b 856 804 828 796 844 797 b 949 953 886 821 949 914 b 932 971 949 964 944 971 z "},"6":{"ha":700,"x_min":0,"x_max":0,"o":"m 361 65 b 271 194 272 65 271 167 b 350 460 271 282 313 399 b 497 531 367 488 414 531 b 607 400 579 531 607 457 b 361 65 607 219 464 65 z m 756 429 b 583 618 756 599 622 618 b 471 604 525 618 483 604 b 451 624 456 604 451 613 b 742 881 451 688 628 881 b 821 814 792 881 821 853 b 796 689 821 738 796 696 b 824 672 796 676 807 672 b 847 679 833 672 842 676 b 1025 946 910 718 1025 904 b 986 964 1025 963 1000 964 b 894 946 942 964 903 946 b 882 949 888 946 882 949 b 781 967 850 967 789 967 b 117 189 394 967 117 433 b 324 -19 117 74 190 -19 b 756 429 561 -19 756 229 z "},"7":{"ha":415,"x_min":0,"x_max":0,"o":"m 90 -10 b 204 24 210 -10 204 24 b 893 915 288 415 893 772 b 688 963 893 950 813 963 b 535 954 590 963 535 954 b 442 983 513 974 479 983 b 235 711 388 979 236 728 b 254 696 235 701 239 696 b 307 721 267 696 286 701 b 593 872 307 721 444 872 b 654 836 603 872 654 864 b 33 15 654 740 33 263 b 90 -10 33 15 38 -10 z "},"8":{"ha":765,"x_min":0,"x_max":0,"o":"m 761 560 b 1007 799 889 603 1007 669 b 788 960 1007 947 846 960 b 401 683 549 960 401 789 b 438 583 401 642 418 606 b 446 563 442 578 446 571 b 404 522 446 549 435 533 b 97 192 240 464 97 378 b 357 -6 97 160 125 -6 b 799 371 593 -6 799 135 b 743 501 799 424 772 469 b 729 529 736 508 729 518 b 761 560 729 540 738 551 z m 378 79 b 253 206 300 79 253 125 b 521 478 253 390 453 478 b 631 321 578 478 631 379 b 378 79 631 178 518 79 z m 674 608 b 651 604 665 606 657 604 b 624 617 632 604 624 617 b 561 744 585 656 561 692 b 743 879 561 763 596 879 b 861 778 811 879 861 844 b 674 608 861 693 782 646 z "},"9":{"ha":765,"x_min":0,"x_max":0,"o":"m 254 531 b 426 342 254 361 388 342 b 510 349 465 342 510 349 b 535 354 519 353 528 354 b 556 333 550 354 556 344 b 267 68 556 265 399 68 b 186 135 217 68 186 96 b 213 260 186 211 213 251 b 188 276 213 275 197 276 l 181 276 b -18 3 125 276 -18 49 b 22 -15 -18 -14 8 -15 b 114 3 71 -15 104 3 b 126 0 121 3 126 0 b 228 -18 158 -18 218 -18 b 892 760 642 -18 892 515 b 685 968 892 875 817 968 b 254 531 447 968 254 731 z m 647 883 b 740 764 736 883 740 803 b 660 500 740 654 696 561 b 513 429 643 472 604 429 b 403 561 431 429 403 503 b 647 883 403 740 543 883 z "},"Á":{"ha":804,"x_min":0,"x_max":0,"o":"m 640 -79 b 525 7 592 -79 525 -24 b 661 325 525 92 661 250 b 472 374 661 363 588 374 b 386 371 444 374 415 372 l 333 301 b 147 -22 233 167 156 -4 b 40 -57 133 -53 65 -57 b -24 -35 24 -57 -24 -56 b 269 363 -24 -15 104 163 b 149 350 215 357 151 350 b 136 363 138 350 136 363 b 232 458 136 397 199 446 b 357 467 243 464 294 465 l 376 489 b 963 976 590 736 831 976 b 994 978 963 976 976 978 b 1090 932 1032 978 1090 971 b 924 582 1090 914 1026 804 b 663 -68 832 381 688 40 b 640 -79 663 -68 663 -79 z m 615 464 b 833 756 739 464 833 711 b 810 775 833 768 824 775 b 464 467 751 775 601 628 b 615 464 544 465 615 464 z m 1157 1114 b 1088 1179 1157 1147 1104 1179 b 1051 1144 1072 1179 1067 1165 b 951 1035 1010 1093 951 1044 b 975 1024 951 1032 951 1024 b 1157 1114 1015 1024 1157 1082 z "},"Â":{"ha":804,"x_min":0,"x_max":0,"o":"m 640 -79 b 525 7 592 -79 525 -24 b 661 325 525 92 661 250 b 472 374 661 363 588 374 b 386 371 444 374 415 372 l 333 301 b 147 -22 233 167 156 -4 b 40 -57 133 -53 65 -57 b -24 -35 24 -57 -24 -56 b 269 363 -24 -15 104 163 b 149 350 215 357 151 350 b 136 363 138 350 136 363 b 232 458 136 397 199 446 b 357 467 243 464 294 465 l 376 489 b 963 976 590 736 831 976 b 994 978 963 976 976 978 b 1090 932 1032 978 1090 971 b 924 582 1090 914 1026 804 b 663 -68 832 381 688 40 b 640 -79 663 -68 663 -79 z m 615 464 b 833 756 739 464 833 711 b 810 775 833 768 824 775 b 464 467 751 775 601 628 b 615 464 544 465 615 464 z m 1069 1063 b 1126 1006 1085 1033 1108 1006 b 1139 1024 1139 1006 1139 1019 b 1167 1131 1142 1035 1157 1101 b 1171 1149 1169 1139 1171 1144 b 1157 1164 1171 1157 1167 1163 b 1090 1142 1133 1164 1108 1153 b 1078 1138 1086 1139 1082 1138 b 1063 1143 1069 1138 1063 1143 b 1017 1163 1051 1154 1035 1163 b 978 1131 997 1163 989 1142 b 885 1026 939 1081 885 1036 b 922 1015 885 1021 888 1015 b 1043 1065 947 1015 1006 1040 b 1057 1071 1047 1068 1053 1071 b 1069 1063 1063 1071 1067 1068 z "},"Ä":{"ha":804,"x_min":0,"x_max":0,"o":"m 640 -79 b 663 -68 663 -79 663 -68 b 924 582 688 40 832 381 b 1090 932 1026 804 1090 914 b 994 978 1090 971 1032 978 b 963 976 976 978 963 976 b 376 489 831 976 590 736 l 357 467 b 232 458 294 465 243 464 b 136 363 199 446 136 397 b 149 350 136 363 138 350 b 269 363 151 350 215 357 b -24 -35 104 163 -24 -15 b 40 -57 -24 -56 24 -57 b 147 -22 65 -57 133 -53 b 333 301 156 -4 233 167 l 386 371 b 472 374 415 372 444 374 b 661 325 588 374 661 363 b 525 7 661 250 525 92 b 640 -79 525 -24 592 -79 z m 615 464 b 464 467 615 464 544 465 b 810 775 601 628 751 775 b 833 756 824 775 833 768 b 615 464 833 711 739 464 z m 993 1097 b 942 1136 993 1121 971 1136 b 844 1060 890 1136 844 1096 b 896 1019 844 1036 865 1019 b 993 1097 950 1019 993 1063 z m 1250 1097 b 1199 1136 1250 1121 1228 1136 b 1101 1060 1147 1136 1101 1096 b 1153 1019 1101 1036 1124 1019 b 1250 1097 1208 1019 1250 1063 z "},"À":{"ha":804,"x_min":0,"x_max":0,"o":"m 640 -79 b 663 -68 663 -79 663 -68 b 924 582 688 40 832 381 b 1090 932 1026 804 1090 914 b 994 978 1090 971 1032 978 b 963 976 976 978 963 976 b 376 489 831 976 590 736 l 357 467 b 232 458 294 465 243 464 b 136 363 199 446 136 397 b 149 350 136 363 138 350 b 269 363 151 350 215 357 b -24 -35 104 163 -24 -15 b 40 -57 -24 -56 24 -57 b 147 -22 65 -57 133 -53 b 333 301 156 -4 233 167 l 386 371 b 472 374 415 372 444 374 b 661 325 588 374 661 363 b 525 7 661 250 525 92 b 640 -79 525 -24 592 -79 z m 615 464 b 464 467 615 464 544 465 b 810 775 601 628 751 775 b 833 756 824 775 833 768 b 615 464 833 711 739 464 z m 996 1183 b 919 1128 981 1183 919 1163 b 1085 1013 919 1096 1046 1019 l 1094 1013 b 1108 1021 1108 1013 1108 1017 b 1028 1144 1110 1029 1060 1086 b 996 1183 1015 1167 1013 1183 z "},"Å":{"ha":804,"x_min":0,"x_max":0,"o":"m 640 -79 b 525 7 592 -79 525 -24 b 661 325 525 92 661 250 b 472 374 661 363 588 374 b 386 371 444 374 415 372 l 333 301 b 147 -22 233 167 156 -4 b 40 -57 133 -53 65 -57 b -24 -35 24 -57 -24 -56 b 269 363 -24 -15 104 163 b 149 350 215 357 151 350 b 136 363 138 350 136 363 b 232 458 136 397 199 446 b 357 467 243 464 294 465 l 376 489 b 963 976 590 736 831 976 b 994 978 963 976 976 978 b 1090 932 1032 978 1090 971 b 924 582 1090 914 1026 804 b 663 -68 832 381 688 40 b 640 -79 663 -68 663 -79 z m 615 464 b 833 756 739 464 833 711 b 810 775 833 768 824 775 b 464 467 751 775 601 628 b 615 464 544 465 615 464 z m 1129 1110 b 1071 1063 1129 1089 1106 1063 b 1040 1086 1054 1063 1040 1072 b 1099 1132 1040 1107 1068 1132 b 1129 1110 1117 1132 1129 1124 z m 983 1071 b 1054 1018 983 1038 1015 1018 b 1188 1124 1126 1018 1188 1075 b 1115 1178 1188 1157 1156 1178 b 983 1071 1056 1178 983 1132 z "},"Ã":{"ha":804,"x_min":0,"x_max":0,"o":"m 929 1028 b 1189 1119 1119 1028 1189 1097 b 1179 1128 1189 1126 1183 1128 b 1060 1119 1171 1128 1104 1119 b 906 1142 956 1119 906 1142 b 803 1057 874 1142 803 1081 b 929 1028 803 1042 824 1028 z m 640 -79 b 663 -68 663 -79 663 -68 b 924 582 688 40 832 381 b 1090 932 1026 804 1090 914 b 994 978 1090 971 1032 978 b 963 976 976 978 963 976 b 376 489 831 976 590 736 l 357 467 b 232 458 294 465 243 464 b 136 363 199 446 136 397 b 149 350 136 363 138 350 b 269 363 151 350 215 357 b -24 -35 104 163 -24 -15 b 40 -57 -24 -56 24 -57 b 147 -22 65 -57 133 -53 b 333 301 156 -4 233 167 l 386 371 b 472 374 415 372 444 374 b 661 325 588 374 661 363 b 525 7 661 250 525 92 b 640 -79 525 -24 592 -79 z m 615 464 b 464 467 615 464 544 465 b 810 775 601 628 751 775 b 833 756 824 775 833 768 b 615 464 833 711 739 464 z "},"B":{"ha":789,"x_min":0,"x_max":0,"o":"m 317 -31 b 822 346 642 -31 822 182 b 693 525 822 478 693 497 b 871 606 693 561 768 550 b 1029 814 950 647 1029 725 b 675 975 1029 974 871 975 b 460 938 486 975 460 953 l 460 926 b 428 800 460 904 458 868 b -36 -39 343 607 -36 -3 b 14 -61 -36 -60 -12 -61 b 133 -21 35 -61 92 -58 b 163 -12 133 -21 144 -12 b 317 -31 194 -12 199 -31 z m 657 357 b 324 56 657 265 535 56 b 232 107 257 56 232 83 b 650 857 232 175 533 714 b 763 896 675 888 708 896 b 860 822 799 896 860 889 b 569 588 860 714 724 588 b 499 493 531 588 499 529 b 517 481 499 489 500 481 l 531 481 b 657 357 565 481 657 471 z "},"C":{"ha":688,"x_min":0,"x_max":0,"o":"m 325 -33 b 707 268 554 -33 707 199 b 685 299 707 300 685 299 b 669 288 675 299 669 288 b 400 108 539 108 435 108 b 283 236 322 108 283 153 b 714 878 283 456 558 878 b 779 808 776 878 779 818 b 701 606 779 700 701 618 b 728 590 701 593 717 590 b 742 592 736 590 742 592 b 1043 947 840 592 1043 900 b 988 974 1043 972 996 974 b 886 946 929 974 900 946 b 776 969 875 946 842 969 b 96 200 390 969 96 422 b 325 -33 96 131 108 -33 z "},"Ç":{"ha":688,"x_min":0,"x_max":0,"o":"m 290 -79 b 347 -32 290 -53 335 -36 b 707 268 564 -18 707 200 b 685 299 707 300 685 299 b 669 288 675 299 669 288 b 400 108 539 108 435 108 b 283 236 322 108 283 153 b 714 878 283 456 558 878 b 779 808 776 878 779 818 b 701 606 779 700 701 618 b 728 590 701 593 717 590 b 742 592 736 590 742 592 b 1043 947 840 592 1043 900 b 988 974 1043 972 996 974 b 886 946 929 974 900 946 b 776 969 875 946 842 969 b 96 200 390 969 96 422 b 276 -29 96 136 107 -7 b 281 -36 278 -31 281 -33 b 276 -40 281 -37 279 -39 b 232 -83 257 -50 232 -67 b 263 -131 232 -104 263 -108 b 208 -174 263 -161 229 -174 b 157 -160 174 -174 164 -160 b 147 -172 150 -160 147 -167 b 217 -218 147 -187 175 -218 b 325 -149 296 -218 325 -175 b 290 -79 325 -106 290 -111 z "},"D":{"ha":831,"x_min":0,"x_max":0,"o":"m 322 -32 b 1033 743 796 -32 1033 508 b 689 978 1033 890 931 978 b 457 938 481 978 457 953 l 457 926 b 425 800 457 904 456 868 b -39 -43 339 603 -39 3 b 3 -61 -39 -50 -35 -61 b 131 -21 47 -61 92 -53 b 160 -12 131 -21 142 -12 b 174 -14 164 -12 169 -12 b 322 -32 200 -19 218 -32 z m 885 768 b 347 51 885 601 642 51 b 229 107 269 51 229 72 b 647 857 229 175 532 713 b 736 896 663 875 692 896 b 885 768 844 896 885 856 z "},"E":{"ha":765,"x_min":0,"x_max":0,"o":"m 646 15 b 769 263 689 68 769 217 b 742 285 769 282 750 285 b 713 272 724 285 718 279 b 353 68 592 81 401 68 b 251 119 307 68 251 74 b 394 406 251 207 378 385 b 529 463 433 453 476 463 b 647 458 564 463 603 458 b 742 479 693 458 721 465 b 786 549 764 493 786 535 b 772 558 786 557 779 558 b 669 554 767 558 726 554 b 507 603 553 554 507 556 b 654 857 507 619 565 775 b 751 886 679 879 718 886 b 857 810 801 886 857 876 b 835 713 857 756 835 713 b 831 701 832 708 831 704 b 853 692 831 693 843 692 b 893 704 875 692 886 699 b 1067 964 958 753 1067 924 b 1031 982 1067 979 1040 982 b 924 958 944 982 924 958 b 754 961 888 960 824 961 b 458 938 617 961 458 956 l 458 922 b 428 799 458 897 457 865 b -37 -39 342 606 -37 -3 l -37 -43 b 3 -61 -37 -60 -12 -61 b 133 -21 56 -61 100 -50 b 161 -8 143 -11 151 -8 b 346 -12 167 -8 171 -12 b 575 -10 431 -12 524 -12 b 646 15 601 -8 628 -7 z "},"É":{"ha":765,"x_min":0,"x_max":0,"o":"m 646 15 b 769 263 689 68 769 217 b 742 285 769 282 750 285 b 713 272 724 285 718 279 b 353 68 592 81 401 68 b 251 119 307 68 251 74 b 394 406 251 207 378 385 b 529 463 433 453 476 463 b 647 458 564 463 603 458 b 742 479 693 458 721 465 b 786 549 764 493 786 535 b 772 558 786 557 779 558 b 669 554 767 558 726 554 b 507 603 553 554 507 556 b 654 857 507 619 565 775 b 751 886 679 879 718 886 b 857 810 801 886 857 876 b 835 713 857 756 835 713 b 831 701 832 708 831 704 b 853 692 831 693 843 692 b 893 704 875 692 886 699 b 1067 964 958 753 1067 924 b 1031 982 1067 979 1040 982 b 924 958 944 982 924 958 b 754 961 888 960 824 961 b 458 938 617 961 458 956 l 458 922 b 428 799 458 897 457 865 b -37 -39 342 606 -37 -3 l -37 -43 b 3 -61 -37 -60 -12 -61 b 133 -21 56 -61 100 -50 b 161 -8 143 -11 151 -8 b 346 -12 167 -8 171 -12 b 575 -10 431 -12 524 -12 b 646 15 601 -8 628 -7 z m 929 1110 b 860 1175 929 1143 876 1175 b 824 1140 844 1175 839 1161 b 724 1031 782 1089 724 1040 b 747 1019 724 1028 724 1019 b 929 1110 788 1019 929 1078 z "},"Ê":{"ha":765,"x_min":0,"x_max":0,"o":"m 646 15 b 769 263 689 68 769 217 b 742 285 769 282 750 285 b 713 272 724 285 718 279 b 353 68 592 81 401 68 b 251 119 307 68 251 74 b 394 406 251 207 378 385 b 529 463 433 453 476 463 b 647 458 564 463 603 458 b 742 479 693 458 721 465 b 786 549 764 493 786 535 b 772 558 786 557 779 558 b 669 554 767 558 726 554 b 507 603 553 554 507 556 b 654 857 507 619 565 775 b 751 886 679 879 718 886 b 857 810 801 886 857 876 b 835 713 857 756 835 713 b 831 701 832 708 831 704 b 853 692 831 693 843 692 b 893 704 875 692 886 699 b 1067 964 958 753 1067 924 b 1031 982 1067 979 1040 982 b 924 958 944 982 924 958 b 754 961 888 960 824 961 b 458 938 617 961 458 956 l 458 922 b 428 799 458 897 457 865 b -37 -39 342 606 -37 -3 l -37 -43 b 3 -61 -37 -60 -12 -61 b 133 -21 56 -61 100 -50 b 161 -8 143 -11 151 -8 b 346 -12 167 -8 171 -12 b 575 -10 431 -12 524 -12 b 646 15 601 -8 628 -7 z m 835 1076 b 892 1019 850 1047 874 1019 b 904 1038 904 1019 904 1033 b 932 1144 907 1049 922 1115 b 936 1163 935 1153 936 1158 b 922 1178 936 1171 932 1176 b 856 1156 899 1178 874 1167 b 843 1151 851 1153 847 1151 b 828 1157 835 1151 828 1157 b 782 1176 817 1168 800 1176 b 743 1144 763 1176 754 1156 b 650 1040 704 1094 650 1050 b 688 1029 650 1035 653 1029 b 808 1079 713 1029 771 1054 b 822 1085 813 1082 818 1085 b 835 1076 828 1085 832 1082 z "},"Ë":{"ha":765,"x_min":0,"x_max":0,"o":"m 646 15 b 769 263 689 68 769 217 b 742 285 769 282 750 285 b 713 272 724 285 718 279 b 353 68 592 81 401 68 b 251 119 307 68 251 74 b 394 406 251 207 378 385 b 529 463 433 453 476 463 b 647 458 564 463 603 458 b 742 479 693 458 721 465 b 786 549 764 493 786 535 b 772 558 786 557 779 558 b 669 554 767 558 726 554 b 507 603 553 554 507 556 b 654 857 507 619 565 775 b 751 886 679 879 718 886 b 857 810 801 886 857 876 b 835 713 857 756 835 713 b 831 701 832 708 831 704 b 853 692 831 693 843 692 b 893 704 875 692 886 699 b 1067 964 958 753 1067 924 b 1031 982 1067 979 1040 982 b 924 958 944 982 924 958 b 754 961 888 960 824 961 b 458 938 617 961 458 956 l 458 922 b 428 799 458 897 457 865 b -37 -39 342 606 -37 -3 l -37 -43 b 3 -61 -37 -60 -12 -61 b 133 -21 56 -61 100 -50 b 161 -8 143 -11 151 -8 b 346 -12 167 -8 171 -12 b 575 -10 431 -12 524 -12 b 646 15 601 -8 628 -7 z m 754 1106 b 703 1144 754 1129 732 1144 b 606 1068 651 1144 606 1104 b 657 1028 606 1044 626 1028 b 754 1106 711 1028 754 1071 z m 1011 1106 b 960 1144 1011 1129 989 1144 b 863 1068 908 1144 863 1104 b 914 1028 863 1044 885 1028 b 1011 1106 969 1028 1011 1071 z "},"È":{"ha":765,"x_min":0,"x_max":0,"o":"m 646 15 b 769 263 689 68 769 217 b 742 285 769 282 750 285 b 713 272 724 285 718 279 b 353 68 592 81 401 68 b 251 119 307 68 251 74 b 394 406 251 207 378 385 b 529 463 433 453 476 463 b 647 458 564 463 603 458 b 742 479 693 458 721 465 b 786 549 764 493 786 535 b 772 558 786 557 779 558 b 669 554 767 558 726 554 b 507 603 553 554 507 556 b 654 857 507 619 565 775 b 751 886 679 879 718 886 b 857 810 801 886 857 876 b 835 713 857 756 835 713 b 831 701 832 708 831 704 b 853 692 831 693 843 692 b 893 704 875 692 886 699 b 1067 964 958 753 1067 924 b 1031 982 1067 979 1040 982 b 924 958 944 982 924 958 b 754 961 888 960 824 961 b 458 938 617 961 458 956 l 458 922 b 428 799 458 897 457 865 b -37 -39 342 606 -37 -3 l -37 -43 b 3 -61 -37 -60 -12 -61 b 133 -21 56 -61 100 -50 b 161 -8 143 -11 151 -8 b 346 -12 167 -8 171 -12 b 575 -10 431 -12 524 -12 b 646 15 601 -8 628 -7 z m 785 1188 b 708 1132 769 1188 708 1167 b 874 1017 708 1100 835 1024 l 883 1017 b 897 1025 897 1017 897 1021 b 817 1149 899 1033 849 1090 b 785 1188 804 1171 801 1188 z "},"Ð":{"ha":831,"x_min":0,"x_max":0,"o":"m 239 456 b -39 -43 107 228 -39 -14 b 3 -61 -39 -50 -35 -61 b 131 -21 47 -61 92 -53 b 160 -12 131 -21 142 -12 b 174 -14 164 -12 169 -12 b 322 -32 200 -19 218 -32 b 1033 743 796 -32 1033 508 b 689 978 1033 890 931 978 b 457 938 481 978 457 953 l 457 926 b 425 800 457 904 456 868 b 293 551 400 743 351 651 l 203 551 b 108 469 138 551 108 483 b 128 456 108 458 119 456 z m 885 768 b 347 51 885 601 642 51 b 229 107 269 51 229 72 b 396 457 229 140 306 294 l 514 457 b 608 539 579 457 608 525 b 589 553 608 550 597 553 b 451 551 544 553 499 551 b 647 857 525 679 601 799 b 736 896 663 875 692 896 b 885 768 844 896 885 856 z "},"€":{"ha":796,"x_min":0,"x_max":0,"o":"m 732 536 b 810 606 785 536 810 593 b 793 615 810 614 800 615 b 668 613 747 615 707 613 l 568 613 b 700 790 614 685 661 749 b 892 871 760 853 807 871 b 1061 786 954 871 1024 867 b 1082 769 1061 786 1064 769 b 1126 853 1114 769 1126 825 b 918 951 1126 939 1076 951 b 546 810 743 951 646 932 b 414 614 529 790 475 713 b 289 615 372 615 331 615 b 211 546 236 615 211 558 b 228 536 211 538 221 536 b 369 539 279 536 324 539 b 321 451 353 510 336 481 l 197 451 b 119 382 144 451 119 394 b 135 372 119 374 128 372 b 282 375 169 372 206 375 b 213 144 242 288 213 204 b 489 -6 213 29 315 -6 l 510 -6 b 756 61 678 -6 704 -4 b 793 153 779 90 793 128 b 775 174 793 172 775 174 b 682 113 753 174 740 144 b 503 72 610 72 551 72 b 376 158 419 72 376 96 b 438 374 376 213 400 290 b 639 372 497 372 561 372 b 718 442 693 372 718 429 b 701 451 718 450 708 451 b 575 449 669 451 639 449 b 475 450 519 449 475 450 b 524 538 490 479 507 508 b 732 536 597 538 664 536 z "},"F":{"ha":578,"x_min":0,"x_max":0,"o":"m 115 -22 b 376 406 179 25 235 224 b 510 463 414 453 458 463 b 629 458 546 463 585 458 b 767 540 718 458 742 481 b 768 549 768 543 768 546 b 756 558 768 557 761 558 b 653 554 750 558 711 554 b 501 571 592 554 519 554 b 489 603 490 581 489 592 b 636 857 489 619 547 775 b 733 886 661 879 701 886 b 840 810 783 886 840 876 b 814 701 840 746 814 708 b 836 690 814 693 826 690 b 869 700 857 690 864 697 b 1050 964 932 740 1050 922 b 1013 982 1050 979 1022 982 b 907 958 928 982 907 958 b 738 961 871 960 807 961 b 442 938 600 961 442 956 l 442 924 b 410 799 442 899 440 867 b -54 -39 325 606 -54 -3 l -54 -43 b -12 -61 -54 -50 -50 -61 b 115 -22 18 -61 65 -61 z "},"G":{"ha":714,"x_min":0,"x_max":0,"o":"m 665 157 b 868 517 758 308 868 481 b 735 536 868 532 806 536 b 547 529 647 536 547 529 b 504 510 535 528 519 524 b 468 453 485 492 468 467 b 485 440 468 442 474 440 b 626 390 603 440 626 422 b 324 100 626 328 451 100 b 249 190 250 100 249 171 b 725 878 249 410 551 878 b 800 804 793 878 800 839 b 764 681 800 746 764 692 b 794 661 764 661 774 661 b 843 678 815 661 829 669 b 1042 947 928 733 1042 907 b 986 974 1042 972 1000 974 b 899 950 933 974 899 950 b 885 946 894 947 889 946 b 872 949 878 946 872 949 b 775 969 840 967 785 969 b 72 160 389 969 72 382 b 217 -33 72 92 85 -33 b 460 69 265 -33 347 -19 b 490 79 467 75 481 79 b 508 64 499 79 506 75 b 565 -8 508 64 521 -8 b 665 157 582 -8 607 61 z "},"H":{"ha":763,"x_min":0,"x_max":0,"o":"m 469 800 b 338 557 426 717 383 635 b 268 551 303 556 275 554 b 178 469 235 539 178 504 b 199 458 178 468 178 458 b 283 463 199 458 232 460 b -14 -39 126 197 -14 -11 b 29 -61 -14 -60 8 -61 b 156 -22 81 -61 114 -54 b 433 465 214 24 314 269 b 510 467 458 467 485 467 b 644 401 624 467 644 439 b 460 6 644 326 460 90 b 594 -44 460 -25 486 -44 b 629 -21 621 -44 629 -21 b 1140 924 629 153 1092 843 b 1149 944 1146 932 1149 939 b 1107 963 1149 958 1131 963 b 954 908 960 963 954 908 b 660 557 879 767 790 557 b 488 558 660 557 576 558 b 713 924 575 707 672 868 b 724 946 713 924 724 935 b 649 974 724 960 708 974 b 500 938 519 974 500 950 l 500 919 b 469 800 500 897 497 861 z "},"I":{"ha":343,"x_min":0,"x_max":0,"o":"m 226 69 b 382 413 226 131 382 413 b 690 924 476 585 632 849 b 701 946 690 924 701 935 b 626 974 701 960 686 974 b 478 938 497 974 478 950 l 478 915 b 447 800 478 892 476 858 b -29 24 249 406 32 60 b -37 7 -29 24 -37 15 b 99 -25 -37 -7 -15 -25 b 233 7 164 -25 233 -21 b 226 69 233 28 226 21 z "},"Í":{"ha":343,"x_min":0,"x_max":0,"o":"m 226 69 b 233 7 226 21 233 28 b 99 -25 233 -21 164 -25 b -37 7 -15 -25 -37 -7 b -29 24 -37 15 -29 24 b 447 800 32 60 249 406 b 478 915 476 858 478 892 l 478 938 b 626 974 478 950 497 974 b 701 946 686 974 701 960 b 690 924 701 935 690 924 b 382 413 632 849 476 585 b 226 69 382 413 226 131 z m 782 1111 b 713 1176 782 1144 729 1176 b 676 1142 697 1176 692 1163 b 576 1032 635 1090 576 1042 b 600 1021 576 1029 576 1021 b 782 1111 640 1021 782 1079 z "},"Î":{"ha":343,"x_min":0,"x_max":0,"o":"m 226 69 b 233 7 226 21 233 28 b 99 -25 233 -21 164 -25 b -37 7 -15 -25 -37 -7 b -29 24 -37 15 -29 24 b 447 800 32 60 249 406 b 478 915 476 858 478 892 l 478 938 b 626 974 478 950 497 974 b 701 946 686 974 701 960 b 690 924 701 935 690 924 b 382 413 632 849 476 585 b 226 69 382 413 226 131 z m 703 1076 b 760 1019 718 1047 742 1019 b 772 1038 772 1019 772 1033 b 800 1144 775 1049 790 1115 b 804 1163 803 1153 804 1158 b 790 1178 804 1171 800 1176 b 724 1156 767 1178 742 1167 b 711 1151 719 1153 715 1151 b 696 1157 703 1151 696 1157 b 650 1176 685 1168 668 1176 b 611 1144 631 1176 622 1156 b 518 1040 572 1094 518 1050 b 556 1029 518 1035 521 1029 b 676 1079 581 1029 639 1054 b 690 1085 681 1082 686 1085 b 703 1076 696 1085 700 1082 z "},"Ï":{"ha":343,"x_min":0,"x_max":0,"o":"m 226 69 b 382 413 226 131 382 413 b 690 924 476 585 632 849 b 701 946 690 924 701 935 b 626 974 701 960 686 974 b 478 938 497 974 478 950 l 478 915 b 447 800 478 892 476 858 b -29 24 249 406 32 60 b -37 7 -29 24 -37 15 b 99 -25 -37 -7 -15 -25 b 233 7 164 -25 233 -21 b 226 69 233 28 226 21 z m 603 1106 b 551 1144 603 1129 581 1144 b 454 1068 500 1144 454 1104 b 506 1028 454 1044 475 1028 b 603 1106 560 1028 603 1071 z m 860 1106 b 808 1144 860 1129 838 1144 b 711 1068 757 1144 711 1104 b 763 1028 711 1044 733 1028 b 860 1106 818 1028 860 1071 z "},"Ì":{"ha":343,"x_min":0,"x_max":0,"o":"m 226 69 b 382 413 226 131 382 413 b 690 924 476 585 632 849 b 701 946 690 924 701 935 b 626 974 701 960 686 974 b 478 938 497 974 478 950 l 478 915 b 447 800 478 892 476 858 b -29 24 249 406 32 60 b -37 7 -29 24 -37 15 b 99 -25 -37 -7 -15 -25 b 233 7 164 -25 233 -21 b 226 69 233 28 226 21 z m 618 1199 b 542 1143 603 1199 542 1178 b 707 1028 542 1111 668 1035 l 717 1028 b 731 1036 731 1028 731 1032 b 650 1160 732 1044 682 1101 b 618 1199 638 1182 635 1199 z "},"J":{"ha":700,"x_min":0,"x_max":0,"o":"m 289 69 b 224 140 246 69 224 104 b 339 417 224 249 339 404 b 313 432 339 429 324 432 b 271 422 296 432 282 429 b -12 7 165 367 -12 50 b 42 -19 -12 -18 33 -19 b 131 4 71 -19 104 -12 b 144 8 135 7 140 8 b 157 6 151 8 157 6 b 254 -18 189 -12 244 -18 b 749 413 564 -18 565 69 b 1057 924 776 463 999 849 b 1068 946 1057 924 1068 935 b 993 974 1068 960 1054 974 b 844 938 864 974 844 950 l 844 919 b 814 800 844 897 843 860 b 508 251 706 583 596 392 b 289 69 478 203 390 69 z "},"K":{"ha":714,"x_min":0,"x_max":0,"o":"m 456 800 b 340 588 418 728 379 657 b 257 581 303 586 269 585 b 178 503 224 568 178 538 b 192 492 181 494 183 492 l 288 496 b -28 -37 124 215 -28 -10 b 14 -61 -28 -49 -26 -61 b 142 -22 43 -61 94 -60 b 375 386 204 26 254 172 l 440 501 l 488 501 b 596 432 571 501 596 469 b 454 17 596 356 454 101 b 572 -31 454 -10 479 -31 b 639 -8 585 -31 639 -31 b 638 21 639 3 638 8 b 749 438 638 150 749 410 b 660 551 749 497 660 511 b 1149 946 660 613 1149 922 b 1058 971 1149 971 1078 971 b 888 918 914 971 888 918 b 489 586 636 611 558 588 b 697 924 569 724 654 865 b 708 946 697 924 708 935 b 633 974 708 960 694 974 b 486 938 506 974 486 950 l 486 925 b 456 800 486 903 485 868 z "},"L":{"ha":726,"x_min":0,"x_max":0,"o":"m 426 799 b -37 -39 342 606 -37 -3 l -37 -43 b 4 -61 -37 -50 -33 -61 b 132 -21 31 -61 85 -61 b 161 -8 132 -21 140 -8 b 338 -12 172 -8 174 -12 b 560 -10 418 -12 508 -12 b 629 15 583 -10 613 -7 b 754 263 674 68 754 217 b 725 285 754 282 735 285 b 697 272 714 285 703 285 b 356 68 576 81 400 68 l 346 68 b 254 119 271 68 254 96 b 376 408 254 203 343 349 b 671 924 469 579 614 832 b 682 946 671 924 682 935 b 607 974 682 960 667 974 b 458 938 478 974 458 950 l 458 919 b 426 799 458 897 454 860 z "},"Ł":{"ha":726,"x_min":0,"x_max":0,"o":"m 426 799 b 286 535 400 739 347 643 l 182 494 b 143 421 150 482 143 444 b 154 399 143 406 146 399 b 168 403 161 399 168 403 l 224 428 b -37 -39 97 208 -37 -17 l -37 -43 b 4 -61 -37 -50 -33 -61 b 132 -21 31 -61 85 -61 b 161 -8 132 -21 140 -8 b 338 -12 172 -8 174 -12 b 560 -10 418 -12 508 -12 b 629 15 583 -10 613 -7 b 754 263 674 68 754 217 b 725 285 754 282 735 285 b 697 272 714 285 703 285 b 356 68 576 81 400 68 l 346 68 b 254 119 271 68 254 96 b 376 408 254 203 343 349 l 431 507 l 543 550 b 582 622 575 563 582 599 b 572 646 582 638 581 646 b 558 642 565 646 558 642 b 489 611 533 629 511 619 b 671 924 561 739 633 864 b 682 946 671 924 682 935 b 607 974 682 960 667 974 b 458 938 478 974 458 950 l 458 919 b 426 799 458 897 454 860 z "},"M":{"ha":999,"x_min":0,"x_max":0,"o":"m 535 149 b 996 651 624 310 924 651 b 1017 638 1011 651 1017 646 b 981 569 1017 621 994 590 b 701 29 913 465 701 139 b 839 -19 701 -1 731 -19 b 878 4 865 -19 878 4 b 1378 951 878 196 1378 942 b 1379 961 1379 956 1379 958 b 1314 989 1379 979 1360 989 b 1153 957 1172 989 1164 965 b 661 499 1001 835 742 499 b 650 522 653 499 650 507 b 760 944 650 608 760 900 b 649 986 760 986 649 986 b 463 931 493 986 463 943 l 463 914 b 431 794 463 892 461 856 b -43 -26 226 386 -43 11 l -43 -31 b 11 -51 -43 -51 -6 -51 b 75 -33 25 -51 51 -50 b 403 554 136 8 189 206 b 503 668 403 554 464 668 b 514 646 511 668 514 660 b 406 175 514 567 406 294 b 467 115 406 125 424 115 b 535 149 489 115 519 121 z "},"N":{"ha":760,"x_min":0,"x_max":0,"o":"m 493 604 b 403 32 493 561 403 139 b 489 -10 403 -10 489 -10 b 649 39 644 -10 649 13 b 688 183 649 61 653 103 b 1168 971 896 590 1168 944 l 1168 974 b 1118 990 1168 989 1132 990 b 1021 969 1107 990 1054 989 b 699 382 961 926 911 731 b 626 311 699 382 665 311 b 615 346 618 311 615 324 b 729 944 615 471 729 900 b 622 985 729 983 633 985 b 456 931 467 985 456 943 l 456 908 b 424 793 456 885 453 851 b -43 -26 222 386 -43 19 l -43 -31 b 13 -51 -43 -51 -6 -51 b 75 -33 28 -51 51 -50 b 379 526 136 7 165 178 b 478 642 379 526 446 642 b 493 604 488 642 493 631 z "},"Ñ":{"ha":760,"x_min":0,"x_max":0,"o":"m 493 604 b 403 32 493 561 403 139 b 489 -10 403 -10 489 -10 b 649 39 644 -10 649 13 b 688 183 649 61 653 103 b 1168 971 896 590 1168 944 l 1168 974 b 1118 990 1168 989 1132 990 b 1021 969 1107 990 1054 989 b 699 382 961 926 911 731 b 626 311 699 382 665 311 b 615 346 618 311 615 324 b 729 944 615 471 729 900 b 622 985 729 983 633 985 b 456 931 467 985 456 943 l 456 908 b 424 793 456 885 453 851 b -43 -26 222 386 -43 19 l -43 -31 b 13 -51 -43 -51 -6 -51 b 75 -33 28 -51 51 -50 b 379 526 136 7 165 178 b 478 642 379 526 446 642 b 493 604 488 642 493 631 z m 808 1028 b 1068 1119 999 1028 1068 1097 b 1058 1128 1068 1126 1063 1128 b 939 1119 1050 1128 983 1119 b 785 1142 835 1119 785 1142 b 682 1057 753 1142 682 1081 b 808 1028 682 1042 703 1028 z "},"O":{"ha":836,"x_min":0,"x_max":0,"o":"m 1038 749 b 788 990 1038 901 943 990 b 110 217 385 990 110 469 b 360 -26 110 64 204 -26 b 1038 749 763 -26 1038 496 z m 874 761 b 392 58 874 490 582 58 b 281 211 281 58 281 175 b 763 914 281 482 571 914 b 874 761 874 914 874 797 z "},"Œ":{"ha":1322,"x_min":0,"x_max":0,"o":"m 1203 15 b 1326 263 1246 68 1326 217 b 1299 285 1326 282 1307 285 b 1269 272 1281 285 1275 279 b 910 68 1149 81 958 68 b 808 119 864 68 808 74 b 951 406 808 207 935 385 b 1086 463 990 453 1033 463 b 1204 458 1121 463 1160 458 b 1299 479 1250 458 1278 465 b 1343 549 1321 493 1343 535 b 1329 558 1343 557 1336 558 b 1226 554 1324 558 1283 554 b 1064 603 1110 554 1064 556 b 1211 857 1064 619 1122 775 b 1308 886 1236 879 1275 886 b 1414 810 1358 886 1414 876 b 1392 713 1414 756 1392 713 b 1388 701 1389 708 1388 704 b 1410 692 1388 693 1400 692 b 1450 704 1432 692 1443 699 b 1624 964 1515 753 1624 924 b 1588 982 1624 979 1597 982 b 1481 958 1501 982 1481 958 b 1311 961 1444 960 1381 961 b 1015 938 1174 961 1015 956 l 1015 922 b 1010 874 1015 908 1014 894 b 788 990 971 949 893 990 b 110 217 385 990 110 469 b 360 -26 110 64 204 -26 b 542 10 424 -26 485 -12 b 519 -39 528 -15 519 -33 l 519 -43 b 560 -61 519 -60 544 -61 b 690 -21 613 -61 657 -50 b 718 -8 700 -11 708 -8 b 903 -12 724 -8 728 -12 b 1132 -10 988 -12 1081 -12 b 1203 15 1158 -8 1185 -7 z m 874 761 b 392 58 874 490 582 58 b 281 211 281 58 281 175 b 763 914 281 482 571 914 b 874 761 874 914 874 797 z "},"Ó":{"ha":836,"x_min":0,"x_max":0,"o":"m 1038 749 b 360 -26 1038 496 763 -26 b 110 217 204 -26 110 64 b 788 990 110 469 385 990 b 1038 749 943 990 1038 901 z m 874 761 b 763 914 874 797 874 914 b 281 211 571 914 281 482 b 392 58 281 175 281 58 b 874 761 582 58 874 490 z m 961 1118 b 892 1183 961 1151 908 1183 b 856 1149 876 1183 871 1169 b 756 1039 814 1097 756 1049 b 779 1028 756 1036 756 1028 b 961 1118 819 1028 961 1086 z "},"Ô":{"ha":836,"x_min":0,"x_max":0,"o":"m 1038 749 b 360 -26 1038 496 763 -26 b 110 217 204 -26 110 64 b 788 990 110 469 385 990 b 1038 749 943 990 1038 901 z m 874 761 b 763 914 874 797 874 914 b 281 211 571 914 281 482 b 392 58 281 175 281 58 b 874 761 582 58 874 490 z m 874 1081 b 931 1024 889 1051 913 1024 b 943 1042 943 1024 943 1038 b 971 1149 946 1053 961 1119 b 975 1167 974 1157 975 1163 b 961 1182 975 1175 971 1181 b 894 1160 938 1182 913 1171 b 882 1156 890 1157 886 1156 b 867 1161 874 1156 867 1161 b 821 1181 856 1172 839 1181 b 782 1149 801 1181 793 1160 b 689 1044 743 1099 689 1054 b 726 1033 689 1039 692 1033 b 847 1083 751 1033 810 1058 b 861 1089 851 1086 857 1089 b 874 1081 867 1089 871 1086 z "},"Ö":{"ha":836,"x_min":0,"x_max":0,"o":"m 1038 749 b 788 990 1038 901 943 990 b 110 217 385 990 110 469 b 360 -26 110 64 204 -26 b 1038 749 763 -26 1038 496 z m 874 761 b 392 58 874 490 582 58 b 281 211 281 58 281 175 b 763 914 281 482 571 914 b 874 761 874 914 874 797 z m 814 1108 b 763 1147 814 1132 792 1147 b 665 1071 711 1147 665 1107 b 717 1031 665 1047 686 1031 b 814 1108 771 1031 814 1074 z m 1071 1108 b 1019 1147 1071 1132 1049 1147 b 922 1071 968 1147 922 1107 b 974 1031 922 1047 944 1031 b 1071 1108 1029 1031 1071 1074 z "},"Ò":{"ha":836,"x_min":0,"x_max":0,"o":"m 1038 749 b 788 990 1038 901 943 990 b 110 217 385 990 110 469 b 360 -26 110 64 204 -26 b 1038 749 763 -26 1038 496 z m 874 761 b 392 58 874 490 582 58 b 281 211 281 58 281 175 b 763 914 281 482 571 914 b 874 761 874 914 874 797 z m 804 1203 b 728 1147 789 1203 728 1182 b 893 1032 728 1115 854 1039 l 903 1032 b 917 1040 917 1032 917 1036 b 836 1164 918 1049 868 1106 b 804 1203 824 1186 821 1203 z "},"Ø":{"ha":836,"x_min":0,"x_max":0,"o":"m 1038 749 b 1011 871 1038 796 1028 836 l 1036 896 b 1078 936 1036 896 1069 926 b 1088 953 1085 943 1088 949 b 1051 968 1088 964 1069 968 b 968 935 1044 968 997 967 l 965 932 b 788 990 922 969 861 990 b 110 217 385 990 110 469 b 139 86 110 165 119 122 l 78 24 b 68 6 71 17 68 10 b 106 -8 68 -8 93 -8 b 189 24 117 -8 160 -7 b 190 25 189 24 190 24 b 360 -26 232 -8 290 -26 b 1038 749 763 -26 1038 496 z m 867 828 b 281 229 674 626 476 426 b 763 914 293 500 575 914 b 867 828 831 914 857 871 z m 290 131 b 872 728 443 289 701 554 b 392 58 850 457 574 58 b 290 131 331 58 303 93 z "},"Õ":{"ha":836,"x_min":0,"x_max":0,"o":"m 808 1028 b 1068 1119 999 1028 1068 1097 b 1058 1128 1068 1126 1063 1128 b 939 1119 1050 1128 983 1119 b 785 1142 835 1119 785 1142 b 682 1057 753 1142 682 1081 b 808 1028 682 1042 703 1028 z m 1038 749 b 788 990 1038 901 943 990 b 110 217 385 990 110 469 b 360 -26 110 64 204 -26 b 1038 749 763 -26 1038 496 z m 874 761 b 392 58 874 490 582 58 b 281 211 281 58 281 175 b 763 914 281 482 571 914 b 874 761 874 914 874 797 z "},"P":{"ha":733,"x_min":0,"x_max":0,"o":"m 1069 792 b 757 981 1069 907 1003 981 b 457 935 519 981 457 950 l 457 921 b 425 797 457 899 454 863 b -39 -42 340 604 -39 -6 l -39 -46 b 3 -64 -39 -53 -35 -64 b 176 10 3 -64 153 -62 b 290 250 186 42 239 164 b 569 392 347 349 381 392 b 1069 792 1014 392 1069 697 z m 644 854 b 761 901 661 872 697 901 b 915 789 831 901 915 897 b 535 479 915 726 847 479 b 436 510 458 479 436 483 b 644 854 436 531 599 801 z "},"Q":{"ha":836,"x_min":0,"x_max":0,"o":"m 458 -17 b 476 -14 458 -17 465 -14 b 551 -122 499 -14 538 -28 b 561 -150 556 -153 561 -150 b 665 0 617 -150 665 -57 b 654 60 665 32 654 43 b 710 128 654 83 686 110 b 1040 749 903 274 1040 572 b 790 990 1040 901 946 990 b 113 217 388 990 113 469 b 363 -26 113 64 207 -26 b 458 -17 393 -26 426 -25 z m 449 193 b 479 90 449 128 479 125 b 394 58 479 64 422 58 b 283 211 292 58 283 175 b 765 914 283 482 575 914 b 876 761 876 914 876 797 b 635 214 876 542 693 214 b 578 378 588 214 578 378 b 565 392 578 378 576 392 b 449 193 536 392 449 290 z "},"R":{"ha":751,"x_min":0,"x_max":0,"o":"m 179 32 b 646 864 207 125 531 719 b 740 903 661 882 699 903 b 881 796 821 903 881 882 b 554 563 881 688 726 563 b 483 482 511 563 483 514 b 500 469 483 476 485 469 b 522 471 500 469 510 471 b 613 397 556 471 613 461 b 489 24 613 322 489 108 b 606 -22 489 -1 513 -22 b 672 0 646 -22 672 -19 b 669 42 672 13 669 28 b 761 375 669 169 761 311 b 679 489 761 436 679 461 b 879 571 679 532 776 517 b 1039 789 960 614 1039 699 b 667 982 1039 972 863 982 b 456 944 478 982 456 960 l 456 931 b 424 807 456 908 453 872 b -36 -14 339 614 -36 24 l -36 -17 b 7 -36 -36 -22 -32 -36 b 179 32 67 -36 160 -19 z "},"S":{"ha":733,"x_min":0,"x_max":0,"o":"m 771 325 b 544 750 771 524 544 619 b 719 889 544 858 676 889 b 829 807 815 889 829 826 b 789 661 829 713 789 672 b 826 644 789 644 817 644 b 1057 954 894 644 1057 911 b 1007 978 1057 976 1021 978 b 918 954 960 978 918 954 b 906 950 914 951 910 950 b 753 974 892 950 858 974 b 371 721 633 974 371 924 b 610 288 371 572 610 467 b 364 65 610 114 457 65 b 235 189 251 65 235 157 b 310 408 235 306 310 396 b 283 424 310 421 294 424 b 225 401 260 424 242 414 b -18 8 125 324 -18 47 b 36 -18 -18 -17 28 -18 b 154 8 78 -18 115 -4 b 168 13 158 11 164 13 b 181 10 175 13 181 10 b 339 -21 213 -8 260 -21 b 771 325 594 -21 771 132 z "},"Š":{"ha":733,"x_min":0,"x_max":0,"o":"m 771 325 b 544 750 771 524 544 619 b 719 889 544 858 676 889 b 829 807 815 889 829 826 b 789 661 829 713 789 672 b 826 644 789 644 817 644 b 1057 954 894 644 1057 911 b 1007 978 1057 976 1021 978 b 918 954 960 978 918 954 b 906 950 914 951 910 950 b 753 974 892 950 858 974 b 371 721 633 974 371 924 b 610 288 371 572 610 467 b 364 65 610 114 457 65 b 235 189 251 65 235 157 b 310 408 235 306 310 396 b 283 424 310 421 294 424 b 225 401 260 424 242 414 b -18 8 125 324 -18 47 b 36 -18 -18 -17 28 -18 b 154 8 78 -18 115 -4 b 168 13 158 11 164 13 b 181 10 175 13 181 10 b 339 -21 213 -8 260 -21 b 771 325 594 -21 771 132 z m 801 1129 b 744 1186 788 1158 763 1186 b 732 1169 733 1186 732 1172 b 704 1063 731 1158 714 1090 b 700 1044 701 1056 700 1050 b 715 1028 700 1035 706 1029 b 781 1050 728 1028 758 1035 b 793 1054 785 1053 789 1054 b 808 1049 801 1054 808 1049 b 854 1031 821 1038 838 1031 b 893 1063 874 1031 882 1051 b 986 1165 932 1111 986 1157 b 949 1176 986 1171 983 1176 b 828 1126 924 1176 865 1151 b 813 1124 828 1126 819 1124 b 801 1129 808 1124 804 1125 z "},"T":{"ha":532,"x_min":0,"x_max":0,"o":"m 999 964 b 979 990 999 974 994 990 b 840 960 910 990 840 960 b 697 963 800 961 747 963 b 499 960 596 963 499 960 b 390 988 463 988 390 988 b 189 699 343 988 189 699 b 185 683 186 692 185 688 b 197 671 185 671 197 671 b 268 699 253 671 268 699 b 501 871 407 851 479 871 b 525 853 519 871 525 863 b 513 817 525 842 518 828 b 29 -11 303 406 29 26 l 29 -15 b 114 -39 29 -37 93 -39 b 208 -10 143 -39 181 -32 b 451 429 271 40 328 218 b 686 826 521 547 615 713 b 753 875 686 826 714 875 b 792 803 776 875 792 851 b 774 688 792 774 786 735 b 772 675 774 688 772 682 b 800 656 772 660 783 656 b 854 689 813 656 835 660 b 999 964 892 742 999 924 z "},"Þ":{"ha":801,"x_min":0,"x_max":0,"o":"m 176 10 b 211 96 181 24 194 56 b 485 213 242 168 317 213 b 985 613 929 213 985 518 b 672 801 985 728 918 801 b 585 800 640 801 611 800 b 668 924 619 854 649 899 b 679 946 668 924 679 935 b 604 974 679 960 664 974 b 456 938 475 974 456 950 l 456 915 b -39 -42 454 749 -39 33 l -39 -46 b 3 -64 -39 -53 -35 -64 b 176 10 3 -64 153 -62 z m 531 675 b 676 722 544 696 613 722 b 831 610 746 722 831 718 b 450 300 831 547 763 300 b 351 331 374 300 351 304 b 531 675 351 351 496 624 z "},"U":{"ha":699,"x_min":0,"x_max":0,"o":"m 301 -35 b 649 189 519 -35 625 149 b 1121 949 742 344 1024 828 b 1142 983 1135 964 1142 975 b 1079 1000 1142 997 1121 1000 b 967 974 1043 1000 999 1000 b 568 225 908 926 701 431 b 365 100 540 181 492 100 b 265 210 268 100 265 179 b 658 939 265 326 606 865 b 668 963 658 939 668 950 b 593 992 668 976 654 992 b 451 950 465 992 451 975 b 410 817 451 928 450 896 b 69 146 289 579 69 272 b 301 -35 69 26 174 -35 z "},"Ú":{"ha":699,"x_min":0,"x_max":0,"o":"m 301 -35 b 69 146 174 -35 69 26 b 410 817 69 272 289 579 b 451 950 450 896 451 928 b 593 992 451 975 465 992 b 668 963 654 992 668 976 b 658 939 668 950 658 939 b 265 210 606 865 265 326 b 365 100 265 179 268 100 b 568 225 492 100 540 181 b 967 974 701 431 908 926 b 1079 1000 999 1000 1043 1000 b 1142 983 1121 1000 1142 997 b 1121 949 1142 975 1135 964 b 649 189 1024 828 742 344 b 301 -35 625 149 519 -35 z m 971 1126 b 901 1192 971 1160 918 1192 b 865 1157 886 1192 881 1178 b 765 1047 824 1106 765 1057 b 789 1036 765 1044 765 1036 b 971 1126 829 1036 971 1094 z "},"Û":{"ha":699,"x_min":0,"x_max":0,"o":"m 301 -35 b 69 146 174 -35 69 26 b 410 817 69 272 289 579 b 451 950 450 896 451 928 b 593 992 451 975 465 992 b 668 963 654 992 668 976 b 658 939 668 950 658 939 b 265 210 606 865 265 326 b 365 100 265 179 268 100 b 568 225 492 100 540 181 b 967 974 701 431 908 926 b 1079 1000 999 1000 1043 1000 b 1142 983 1121 1000 1142 997 b 1121 949 1142 975 1135 964 b 649 189 1024 828 742 344 b 301 -35 625 149 519 -35 z m 883 1088 b 940 1031 899 1058 922 1031 b 953 1049 953 1031 953 1044 b 981 1156 956 1060 971 1126 b 985 1174 983 1164 985 1169 b 971 1189 985 1182 981 1188 b 904 1167 947 1189 922 1178 b 892 1163 900 1164 896 1163 b 876 1168 883 1163 876 1168 b 831 1188 865 1179 849 1188 b 792 1156 811 1188 803 1167 b 699 1051 753 1106 699 1061 b 736 1040 699 1046 701 1040 b 857 1090 761 1040 819 1065 b 871 1096 861 1093 867 1096 b 883 1088 876 1096 881 1093 z "},"Ü":{"ha":699,"x_min":0,"x_max":0,"o":"m 301 -35 b 649 189 519 -35 625 149 b 1121 949 742 344 1024 828 b 1142 983 1135 964 1142 975 b 1079 1000 1142 997 1121 1000 b 967 974 1043 1000 999 1000 b 568 225 908 926 701 431 b 365 100 540 181 492 100 b 265 210 268 100 265 179 b 658 939 265 326 606 865 b 668 963 658 939 668 950 b 593 992 668 976 654 992 b 451 950 465 992 451 975 b 410 817 451 928 450 896 b 69 146 289 579 69 272 b 301 -35 69 26 174 -35 z m 810 1122 b 758 1161 810 1146 788 1161 b 661 1085 707 1161 661 1121 b 713 1044 661 1061 682 1044 b 810 1122 767 1044 810 1088 z m 1067 1122 b 1015 1161 1067 1146 1044 1161 b 918 1085 964 1161 918 1121 b 969 1044 918 1061 940 1044 b 1067 1122 1025 1044 1067 1088 z "},"Ù":{"ha":699,"x_min":0,"x_max":0,"o":"m 301 -35 b 649 189 519 -35 625 149 b 1121 949 742 344 1024 828 b 1142 983 1135 964 1142 975 b 1079 1000 1142 997 1121 1000 b 967 974 1043 1000 999 1000 b 568 225 908 926 701 431 b 365 100 540 181 492 100 b 265 210 268 100 265 179 b 658 939 265 326 606 865 b 668 963 658 939 668 950 b 593 992 668 976 654 992 b 451 950 465 992 451 975 b 410 817 451 928 450 896 b 69 146 289 579 69 272 b 301 -35 69 26 174 -35 z m 801 1199 b 725 1143 786 1199 725 1178 b 890 1028 725 1111 851 1035 l 900 1028 b 914 1036 914 1028 914 1032 b 833 1160 915 1044 865 1101 b 801 1199 821 1182 818 1199 z "},"V":{"ha":583,"x_min":0,"x_max":0,"o":"m 121 -24 b 354 78 288 -24 319 19 b 1124 963 440 226 969 814 b 1136 985 1132 971 1136 978 b 1064 1008 1136 1004 1097 1008 b 914 989 1064 1008 956 1008 b 879 949 892 978 888 965 b 404 293 789 772 460 349 b 333 243 367 254 360 243 b 306 279 314 243 306 257 b 511 949 306 331 511 896 b 432 990 511 964 500 990 b 301 954 319 990 301 972 b 304 925 301 947 304 940 b 290 817 304 904 300 875 b 58 25 249 638 114 186 b 54 10 58 25 54 18 b 121 -24 54 -4 65 -24 z "},"W":{"ha":1038,"x_min":0,"x_max":0,"o":"m 664 465 b 685 442 682 465 685 453 b 549 25 685 403 594 157 b 544 10 549 25 544 18 b 613 -24 544 -4 556 -24 b 844 78 778 -24 806 21 b 1601 963 967 257 1415 786 b 1614 985 1610 971 1614 978 b 1542 1008 1614 1006 1563 1008 b 1392 989 1542 1008 1433 1008 b 1357 949 1369 978 1365 965 b 896 293 1267 772 951 349 b 825 243 857 254 850 243 b 797 279 806 243 797 257 b 981 829 797 328 925 715 b 990 856 981 829 990 843 b 953 879 990 868 982 879 b 778 826 792 879 778 826 b 399 293 664 638 444 339 b 328 243 360 254 353 243 b 300 279 308 243 300 257 b 510 940 300 328 490 833 b 513 950 511 942 513 946 b 432 990 513 965 500 990 b 303 953 317 990 303 971 b 304 922 303 946 304 939 b 292 817 304 901 301 872 b 51 25 249 638 107 186 b 47 10 51 25 47 18 b 115 -24 47 -4 58 -24 b 347 78 281 -24 308 22 b 614 432 426 190 507 304 b 664 465 614 432 639 465 z "},"X":{"ha":746,"x_min":0,"x_max":0,"o":"m 492 368 b 514 340 503 368 514 360 b 513 310 514 328 513 318 b 501 68 507 210 501 125 b 564 -26 501 -14 510 -26 b 686 13 590 -26 686 -21 b 674 46 686 24 676 35 b 661 210 664 76 661 136 b 671 489 661 290 665 389 b 738 601 676 568 738 601 b 1203 938 928 757 1097 878 b 1222 961 1217 946 1222 954 b 1154 983 1222 982 1168 983 b 1015 964 1154 983 1061 983 b 969 924 989 953 982 940 b 744 708 933 878 854 806 b 713 693 733 699 719 693 b 686 731 686 693 686 731 b 696 910 692 810 696 871 b 604 988 696 974 668 988 b 501 964 518 988 501 978 b 508 943 501 957 507 949 b 532 732 528 885 532 796 b 526 579 532 681 529 631 b 475 478 524 517 475 478 b -71 -18 243 282 -71 8 b -21 -35 -71 -24 -64 -35 b 138 19 107 -35 138 19 b 446 346 210 115 339 253 b 492 368 446 346 471 368 z "},"Y":{"ha":493,"x_min":0,"x_max":0,"o":"m 236 379 b 24 -12 206 279 24 14 l 24 -17 b 101 -40 24 -37 81 -40 b 181 -12 125 -40 156 -35 b 447 411 247 33 363 321 b 1071 933 579 551 950 864 b 1094 961 1088 943 1094 953 b 1015 986 1094 985 1038 986 b 874 964 1015 986 928 986 b 821 918 843 951 836 938 b 483 560 779 864 611 672 b 446 542 471 549 456 542 b 418 586 418 542 418 586 b 467 940 425 696 467 871 b 367 992 467 953 461 992 b 249 964 269 992 249 979 b 257 939 249 956 253 946 b 265 861 264 922 265 897 b 267 714 265 824 267 786 b 236 379 267 613 261 461 z "},"Ý":{"ha":493,"x_min":0,"x_max":0,"o":"m 236 379 b 267 714 261 461 267 613 b 265 861 267 786 265 824 b 257 939 265 897 264 922 b 249 964 253 946 249 956 b 367 992 249 979 269 992 b 467 940 461 992 467 953 b 418 586 467 871 425 696 b 446 542 418 586 418 542 b 483 560 456 542 471 549 b 821 918 611 672 779 864 b 874 964 836 938 843 951 b 1015 986 928 986 1015 986 b 1094 961 1038 986 1094 985 b 1071 933 1094 953 1088 943 b 447 411 950 864 579 551 b 181 -12 363 321 247 33 b 101 -40 156 -35 125 -40 b 24 -17 81 -40 24 -37 l 24 -12 b 236 379 24 14 206 279 z m 806 1113 b 736 1178 806 1146 753 1178 b 700 1143 721 1178 715 1164 b 600 1033 658 1092 600 1043 b 624 1022 600 1031 600 1022 b 806 1113 664 1022 806 1081 z "},"Ÿ":{"ha":493,"x_min":0,"x_max":0,"o":"m 236 379 b 24 -12 206 279 24 14 l 24 -17 b 101 -40 24 -37 81 -40 b 181 -12 125 -40 156 -35 b 447 411 247 33 363 321 b 1071 933 579 551 950 864 b 1094 961 1088 943 1094 953 b 1015 986 1094 985 1038 986 b 874 964 1015 986 928 986 b 821 918 843 951 836 938 b 483 560 779 864 611 672 b 446 542 471 549 456 542 b 418 586 418 542 418 586 b 467 940 425 696 467 871 b 367 992 467 953 461 992 b 249 964 269 992 249 979 b 257 939 249 956 253 946 b 265 861 264 922 265 897 b 267 714 265 824 267 786 b 236 379 267 613 261 461 z m 657 1111 b 606 1150 657 1135 635 1150 b 508 1074 554 1150 508 1110 b 560 1033 508 1050 529 1033 b 657 1111 614 1033 657 1076 z m 914 1111 b 863 1150 914 1135 892 1150 b 765 1074 811 1150 765 1110 b 817 1033 765 1050 788 1033 b 914 1111 872 1033 914 1076 z "},"Z":{"ha":804,"x_min":0,"x_max":0,"o":"m 1104 908 b 888 963 1104 951 997 963 b 681 954 804 963 742 960 b 585 985 651 978 614 985 b 540 968 565 985 553 979 b 363 711 475 913 364 725 b 382 696 363 701 367 696 b 435 721 394 696 403 696 b 757 872 532 800 636 872 b 826 835 776 872 826 871 l 826 833 b -22 40 822 757 -22 217 b 294 -18 -22 -8 54 -18 b 465 -6 332 -18 465 -6 b 590 -37 496 -29 554 -37 l 606 -37 b 863 340 660 -32 860 304 b 840 354 863 349 856 354 l 838 354 b 788 331 828 354 817 354 b 365 75 788 331 568 75 b 278 118 356 75 278 79 b 1104 908 278 285 1104 769 z "},"Ž":{"ha":804,"x_min":0,"x_max":0,"o":"m 913 1124 b 856 1181 899 1153 874 1181 b 843 1164 844 1181 843 1167 b 815 1057 842 1153 825 1085 b 811 1039 813 1050 811 1044 b 826 1022 811 1029 817 1024 b 892 1044 839 1022 869 1029 b 904 1049 896 1047 900 1049 b 919 1043 913 1049 919 1043 b 965 1025 932 1032 949 1025 b 1004 1057 985 1025 993 1046 b 1097 1160 1043 1106 1097 1151 b 1060 1171 1097 1165 1094 1171 b 939 1121 1035 1171 976 1146 b 924 1118 939 1121 931 1118 b 913 1124 919 1118 915 1119 z m 1104 908 b 888 963 1104 951 997 963 b 681 954 804 963 742 960 b 585 985 651 978 614 985 b 540 968 565 985 553 979 b 363 711 475 913 364 725 b 382 696 363 701 367 696 b 435 721 394 696 403 696 b 757 872 532 800 636 872 b 826 835 776 872 826 871 l 826 833 b -22 40 822 757 -22 217 b 294 -18 -22 -8 54 -18 b 465 -6 332 -18 465 -6 b 590 -37 496 -29 554 -37 l 606 -37 b 863 340 660 -32 860 304 b 840 354 863 349 856 354 l 838 354 b 788 331 828 354 817 354 b 365 75 788 331 568 75 b 278 118 356 75 278 79 b 1104 908 278 285 1104 769 z "},"a":{"ha":556,"x_min":0,"x_max":0,"o":"m 429 -14 b 604 342 447 111 604 342 b 607 349 606 344 607 346 b 556 371 607 367 556 371 b 463 336 475 371 463 336 b 228 113 372 181 276 113 b 199 147 207 113 199 133 b 504 443 199 272 354 443 b 660 401 628 443 629 401 b 683 443 682 401 683 435 b 560 535 683 526 571 535 b 22 28 219 535 22 176 b 79 -57 22 10 22 -57 b 342 89 213 -57 306 89 b 350 78 344 89 350 88 b 347 49 350 69 347 57 b 415 -31 347 21 357 -31 b 429 -14 421 -31 428 -25 z "},"á":{"ha":556,"x_min":0,"x_max":0,"o":"m 688 700 b 618 765 688 733 635 765 b 582 731 603 765 597 751 b 482 621 540 679 482 631 b 506 610 482 618 482 610 b 688 700 546 610 688 668 z m 429 -14 b 415 -31 428 -25 421 -31 b 347 49 357 -31 347 21 b 350 78 347 57 350 69 b 342 89 350 88 344 89 b 79 -57 306 89 213 -57 b 22 28 22 -57 22 10 b 560 535 22 176 219 535 b 683 443 571 535 683 526 b 660 401 683 435 682 401 b 504 443 629 401 628 443 b 199 147 354 443 199 272 b 228 113 199 133 207 113 b 463 336 276 113 372 181 b 556 371 463 336 475 371 b 607 349 556 371 607 367 b 604 342 607 346 606 344 b 429 -14 604 342 447 111 z "},"â":{"ha":556,"x_min":0,"x_max":0,"o":"m 590 658 b 647 601 606 629 629 601 b 660 619 660 601 660 615 b 688 726 663 631 678 697 b 692 744 690 735 692 740 b 678 760 692 753 688 758 b 611 738 654 760 629 749 b 599 733 607 735 603 733 b 583 739 590 733 583 739 b 538 758 572 750 556 758 b 499 726 518 758 510 738 b 406 622 460 676 406 632 b 443 611 406 617 408 611 b 564 661 468 611 526 636 b 578 667 568 664 574 667 b 590 658 583 667 588 664 z m 429 -14 b 415 -31 428 -25 421 -31 b 347 49 357 -31 347 21 b 350 78 347 57 350 69 b 342 89 350 88 344 89 b 79 -57 306 89 213 -57 b 22 28 22 -57 22 10 b 560 535 22 176 219 535 b 683 443 571 535 683 526 b 660 401 683 435 682 401 b 504 443 629 401 628 443 b 199 147 354 443 199 272 b 228 113 199 133 207 113 b 463 336 276 113 372 181 b 556 371 463 336 475 371 b 607 349 556 371 607 367 b 604 342 607 346 606 344 b 429 -14 604 342 447 111 z "},"´":{"ha":556,"x_min":0,"x_max":0,"o":"m 688 700 b 618 765 688 733 635 765 b 582 731 603 765 597 751 b 482 621 540 679 482 631 b 506 610 482 618 482 610 b 688 700 546 610 688 668 z "},"ä":{"ha":556,"x_min":0,"x_max":0,"o":"m 521 694 b 469 733 521 718 499 733 b 372 657 418 733 372 693 b 424 617 372 633 393 617 b 521 694 478 617 521 660 z m 778 694 b 726 733 778 718 756 733 b 629 657 675 733 629 693 b 681 617 629 633 651 617 b 778 694 736 617 778 660 z m 429 -14 b 604 342 447 111 604 342 b 607 349 606 344 607 346 b 556 371 607 367 556 371 b 463 336 475 371 463 336 b 228 113 372 181 276 113 b 199 147 207 113 199 133 b 504 443 199 272 354 443 b 660 401 628 443 629 401 b 683 443 682 401 683 435 b 560 535 683 526 571 535 b 22 28 219 535 22 176 b 79 -57 22 10 22 -57 b 342 89 213 -57 306 89 b 350 78 344 89 350 88 b 347 49 350 69 347 57 b 415 -31 347 21 357 -31 b 429 -14 421 -31 428 -25 z "},"æ":{"ha":788,"x_min":0,"x_max":0,"o":"m 504 -100 b 571 -58 535 -100 571 -86 b 488 60 571 -32 488 -46 b 572 140 488 124 511 135 b 883 438 679 150 883 265 b 790 533 883 522 817 533 b 650 506 739 533 693 524 b 560 535 615 531 567 535 b 22 28 219 535 22 176 b 79 -57 22 10 22 -57 b 342 89 213 -57 306 89 b 349 85 343 89 346 88 l 349 74 b 504 -100 349 -17 396 -100 z m 504 443 b 542 442 518 443 531 442 b 381 218 467 381 411 297 b 228 113 318 146 261 113 b 199 147 207 113 199 133 b 504 443 199 272 354 443 z m 749 403 b 543 213 749 296 607 213 b 519 228 519 213 519 228 b 710 446 519 310 636 446 b 749 403 721 446 749 444 z "},"à":{"ha":556,"x_min":0,"x_max":0,"o":"m 493 769 b 417 714 478 769 417 749 b 582 599 417 682 543 606 l 592 599 b 606 607 606 599 606 603 b 525 731 607 615 557 672 b 493 769 513 753 510 769 z m 429 -14 b 604 342 447 111 604 342 b 607 349 606 344 607 346 b 556 371 607 367 556 371 b 463 336 475 371 463 336 b 228 113 372 181 276 113 b 199 147 207 113 199 133 b 504 443 199 272 354 443 b 660 401 628 443 629 401 b 683 443 682 401 683 435 b 560 535 683 526 571 535 b 22 28 219 535 22 176 b 79 -57 22 10 22 -57 b 342 89 213 -57 306 89 b 350 78 344 89 350 88 b 347 49 350 69 347 57 b 415 -31 347 21 357 -31 b 429 -14 421 -31 428 -25 z "},"&":{"ha":733,"x_min":0,"x_max":0,"o":"m 613 476 b 701 610 613 563 701 610 b 950 858 796 657 950 732 b 796 946 950 872 943 946 b 488 729 603 946 504 811 b 479 615 485 719 479 672 b 463 592 479 594 463 592 b 79 165 319 544 79 400 b 286 -1 79 36 200 -1 b 481 53 381 -1 481 53 b 493 56 481 53 486 56 b 508 47 499 56 504 54 b 660 -31 508 47 510 -31 b 683 -4 671 -31 683 -17 b 681 3 683 -1 683 0 b 643 150 672 10 643 104 b 724 293 643 183 724 201 b 711 310 724 307 717 310 b 667 301 704 310 685 301 b 618 346 618 301 618 346 b 613 476 614 393 613 424 z m 453 486 b 478 460 475 486 478 468 b 499 176 479 368 486 275 l 499 175 b 375 106 499 153 446 106 b 240 226 240 106 240 210 b 453 486 240 351 388 486 z m 804 825 b 656 682 804 769 708 682 b 625 715 631 682 625 703 b 753 867 625 785 688 867 b 804 825 783 867 804 860 z "},"å":{"ha":556,"x_min":0,"x_max":0,"o":"m 611 688 b 553 640 611 667 588 640 b 522 664 536 640 522 650 b 581 710 522 685 550 710 b 611 688 599 710 611 701 z m 465 649 b 536 596 465 615 497 596 b 669 701 608 596 669 653 b 597 756 669 735 638 756 b 465 649 538 756 465 710 z m 429 -14 b 415 -31 428 -25 421 -31 b 347 49 357 -31 347 21 b 350 78 347 57 350 69 b 342 89 350 88 344 89 b 79 -57 306 89 213 -57 b 22 28 22 -57 22 10 b 560 535 22 176 219 535 b 683 443 571 535 683 526 b 660 401 683 435 682 401 b 504 443 629 401 628 443 b 199 147 354 443 199 272 b 228 113 199 133 207 113 b 463 336 276 113 372 181 b 556 371 463 336 475 371 b 607 349 556 371 607 367 b 604 342 607 346 606 344 b 429 -14 604 342 447 111 z "},"^":{"ha":388,"x_min":0,"x_max":0,"o":"m 275 238 b 332 181 290 208 314 181 b 344 199 344 181 344 194 b 372 306 347 210 363 276 b 376 324 375 314 376 319 b 363 339 376 332 372 338 b 296 317 339 339 314 328 b 283 313 292 314 288 313 b 268 318 275 313 268 318 b 222 338 257 329 240 338 b 183 306 203 338 194 317 b 90 201 144 256 90 211 b 128 190 90 196 93 190 b 249 240 153 190 211 215 b 263 246 253 243 258 246 b 275 238 268 246 272 243 z "},"~":{"ha":393,"x_min":0,"x_max":0,"o":"m 189 188 b 393 279 339 188 393 257 b 386 288 393 286 389 288 l 383 288 b 293 279 349 282 319 279 b 171 301 213 279 171 301 b 90 217 147 301 90 240 b 189 188 90 201 107 188 z "},"*":{"ha":326,"x_min":0,"x_max":0,"o":"m 493 771 b 564 703 525 771 542 703 b 611 735 592 703 611 726 b 557 811 611 754 557 778 b 644 842 557 839 619 842 l 654 842 b 678 890 676 842 678 882 b 661 903 678 900 672 903 b 565 883 635 903 588 883 b 553 892 557 883 553 885 b 597 983 553 924 597 961 b 560 999 597 999 572 999 b 474 904 500 999 511 904 b 408 968 442 904 429 968 b 360 932 392 968 360 951 b 418 861 360 904 418 892 b 329 828 418 839 367 836 b 299 785 301 821 299 789 b 314 765 299 782 299 765 b 414 797 338 765 390 797 b 425 788 421 797 425 794 b 382 700 425 756 382 725 b 424 681 382 700 383 681 b 493 771 465 681 467 771 z "},"@":{"ha":1294,"x_min":0,"x_max":0,"o":"m 385 -283 b 554 -194 514 -283 554 -219 b 525 -182 554 -183 535 -182 b 208 96 349 -182 208 -122 b 803 671 208 283 382 671 b 1179 351 1043 671 1179 517 b 863 -93 1179 60 988 -93 b 788 -26 803 -93 788 -58 b 981 444 788 106 981 281 b 807 560 981 539 892 560 b 606 467 669 560 606 494 b 619 453 606 457 613 453 b 724 474 633 453 675 474 b 829 418 818 474 829 435 b 806 393 829 404 822 393 b 381 90 461 390 381 168 b 475 -15 381 71 390 -15 b 650 47 576 -15 619 47 b 667 38 663 47 667 44 b 647 -49 667 24 647 -7 b 811 -176 647 -117 688 -176 b 1319 368 1003 -176 1319 -22 b 824 760 1319 557 1174 760 b 67 65 440 760 67 436 b 385 -283 67 -114 161 -283 z m 789 288 b 572 100 789 247 676 100 b 529 146 560 100 529 101 b 735 311 529 188 586 311 b 789 288 749 311 789 304 z "},"ã":{"ha":556,"x_min":0,"x_max":0,"o":"m 521 594 b 725 686 671 594 725 664 b 718 694 725 693 721 694 l 715 694 b 625 686 681 689 651 686 b 503 708 544 686 503 708 b 422 624 479 708 422 647 b 521 594 422 608 439 594 z m 429 -14 b 604 342 447 111 604 342 b 607 349 606 344 607 346 b 556 371 607 367 556 371 b 463 336 475 371 463 336 b 228 113 372 181 276 113 b 199 147 207 113 199 133 b 504 443 199 272 354 443 b 660 401 628 443 629 401 b 683 443 682 401 683 435 b 560 535 683 526 571 535 b 22 28 219 535 22 176 b 79 -57 22 10 22 -57 b 342 89 213 -57 306 89 b 350 78 344 89 350 88 b 347 49 350 69 347 57 b 415 -31 347 21 357 -31 b 429 -14 421 -31 428 -25 z "},"b":{"ha":601,"x_min":0,"x_max":0,"o":"m 247 -32 b 678 432 493 -32 678 293 b 596 533 678 515 636 533 b 404 458 489 533 435 458 b 393 471 396 458 393 464 b 396 485 393 475 394 482 b 838 1175 593 865 838 1139 b 796 1197 838 1196 803 1197 b 640 1136 683 1197 654 1161 b -47 -57 628 1110 -47 -57 b -49 -62 -47 -57 -49 -58 b -3 -85 -49 -71 -42 -85 b 101 -40 50 -85 82 -71 b 138 -8 117 -17 125 -8 b 247 -32 158 -8 185 -32 z m 207 125 b 504 419 207 176 404 419 b 535 382 531 419 535 397 b 297 47 535 278 407 47 b 207 125 219 47 207 125 z "},"\\":{"ha":496,"x_min":0,"x_max":0,"o":"m 467 -42 b 308 976 431 104 311 932 b 240 1013 307 1008 264 1013 l 225 1013 b 182 983 188 1013 182 994 b 183 976 182 979 183 976 b 340 -42 183 976 328 71 b 410 -78 344 -74 388 -78 l 424 -78 b 468 -49 463 -78 468 -58 b 467 -42 468 -44 467 -42 z "},"|":{"ha":447,"x_min":0,"x_max":0,"o":"m 174 -47 b 735 932 222 49 735 932 b 764 978 735 932 758 967 b 768 992 767 983 768 988 b 726 1013 768 1007 749 1013 l 724 1013 b 633 976 710 1013 651 1010 b 74 -3 581 878 74 -3 b 43 -47 74 -3 49 -36 b 39 -61 40 -53 39 -57 b 88 -82 39 -81 68 -82 b 174 -47 106 -82 157 -79 z "},"{":{"ha":372,"x_min":0,"x_max":0,"o":"m 136 -106 b 147 -57 147 -106 147 -92 l 147 -44 b 340 358 147 57 340 308 b 306 454 340 401 306 454 b 299 478 301 464 299 472 b 326 503 299 493 311 497 b 563 725 467 550 499 603 b 782 1008 686 963 739 988 l 790 1013 b 813 1033 807 1021 813 1028 b 799 1046 813 1042 799 1046 b 525 888 601 1046 525 888 b 400 661 475 800 400 661 b 228 525 329 536 228 525 b 197 503 207 521 197 513 b 204 488 197 499 200 493 b 240 400 213 478 240 456 b 68 57 240 344 68 146 b 136 -106 68 -18 108 -106 z "},"}":{"ha":429,"x_min":0,"x_max":0,"o":"m 590 1046 b 579 997 579 1046 579 1032 l 579 985 b 386 583 579 885 386 633 b 426 464 386 531 426 489 b 399 439 426 449 414 444 b 163 217 258 390 226 339 b -57 -68 40 -21 -14 -47 b -87 -93 -65 -72 -87 -81 b -74 -106 -87 -101 -74 -106 b 200 53 125 -106 200 53 b 326 279 250 140 326 279 b 499 415 396 406 499 415 b 528 438 518 421 528 428 b 521 453 528 442 525 447 b 485 540 513 464 485 485 b 658 885 485 596 658 794 b 590 1046 658 958 618 1046 z "},"[":{"ha":372,"x_min":0,"x_max":0,"o":"m 525 888 b 186 290 413 690 313 486 b 68 57 136 211 68 113 b 136 -106 68 -18 108 -106 b 147 -57 147 -106 147 -92 l 147 -44 b 251 188 147 8 201 101 l 613 817 b 782 1008 701 969 746 990 l 790 1013 b 813 1033 807 1021 813 1028 b 799 1046 813 1042 799 1046 b 525 888 601 1046 525 888 z "},"]":{"ha":429,"x_min":0,"x_max":0,"o":"m 201 53 b 540 650 314 250 414 454 b 658 883 590 729 658 828 b 590 1046 658 958 618 1046 b 579 997 579 1046 579 1032 l 579 985 b 475 753 579 932 525 839 l 114 124 b -56 -68 25 -29 -19 -50 l -64 -72 b -86 -93 -81 -81 -86 -87 b -72 -106 -86 -101 -72 -106 b 201 53 125 -106 201 53 z "},"˘":{"ha":506,"x_min":0,"x_max":0,"o":"m 508 740 b 478 760 503 756 488 760 b 463 717 464 760 463 735 b 525 606 463 657 475 606 b 719 739 601 606 719 714 b 688 750 719 747 704 750 b 654 744 674 750 660 747 b 551 694 613 724 578 694 b 508 740 535 694 521 707 z "},"¦":{"ha":447,"x_min":0,"x_max":0,"o":"m 176 -42 b 394 336 225 54 394 336 b 424 382 394 336 418 371 b 428 396 426 388 428 392 b 386 417 428 411 408 417 l 383 417 b 293 381 369 417 311 414 b 76 3 240 282 76 3 b 46 -42 76 3 51 -31 b 42 -56 43 -47 42 -51 b 90 -76 42 -75 71 -76 b 176 -42 108 -76 160 -74 z m 517 554 b 735 932 565 650 735 932 b 764 978 735 932 758 967 b 768 992 767 983 768 988 b 726 1013 768 1007 749 1013 l 724 1013 b 633 976 710 1013 651 1010 b 417 599 581 878 417 599 b 386 554 417 599 392 565 b 382 540 383 549 382 544 b 431 519 382 521 411 519 b 517 554 449 519 500 522 z "},"•":{"ha":311,"x_min":0,"x_max":0,"o":"m 251 342 b 106 225 169 342 106 275 b 183 165 106 189 139 165 b 332 283 269 165 332 226 b 251 342 332 319 297 342 z "},"c":{"ha":472,"x_min":0,"x_max":0,"o":"m 472 283 b 653 529 531 419 653 517 b 589 560 653 558 589 560 b 500 529 511 560 500 529 b 463 506 489 510 475 506 b 439 507 454 506 446 507 b 42 90 203 507 42 219 b 194 -60 42 28 68 -60 b 422 72 340 -60 422 36 b 407 88 422 75 419 88 b 388 79 403 88 396 86 b 283 51 388 79 351 51 b 185 153 207 51 185 99 b 390 414 185 240 274 414 b 419 388 411 414 419 400 b 410 333 419 371 410 363 b 456 275 410 306 422 275 b 472 283 460 275 469 276 z "},"ˇ":{"ha":506,"x_min":0,"x_max":0,"o":"m 535 703 b 478 760 521 732 496 760 b 465 743 467 760 465 746 b 438 636 464 732 447 664 b 433 618 435 629 433 624 b 449 601 433 608 439 603 b 514 624 461 601 492 608 b 526 628 518 626 522 628 b 542 622 535 628 542 622 b 588 604 554 611 571 604 b 626 636 607 604 615 625 b 719 739 665 685 719 731 b 682 750 719 744 717 750 b 561 700 657 750 599 725 b 546 697 561 700 553 697 b 535 703 542 697 538 699 z "},"ç":{"ha":472,"x_min":0,"x_max":0,"o":"m 472 283 b 653 529 531 419 653 517 b 589 560 653 558 589 560 b 500 529 511 560 500 529 b 463 506 489 510 475 506 b 439 507 454 506 446 507 b 42 90 203 507 42 219 b 168 -58 42 32 64 -47 b 171 -62 169 -60 171 -60 b 167 -67 171 -64 169 -65 b 131 -103 150 -75 132 -87 l 131 -104 b 156 -143 131 -118 156 -122 b 110 -179 156 -169 128 -179 b 76 -171 89 -179 76 -171 b 67 -167 72 -168 69 -167 b 58 -178 61 -167 58 -174 b 117 -217 58 -190 81 -217 b 208 -157 185 -217 208 -179 b 179 -99 208 -121 179 -125 b 211 -58 179 -83 194 -64 b 422 72 346 -51 422 38 b 407 88 422 75 419 88 b 388 79 403 88 396 86 b 283 51 388 79 351 51 b 185 153 207 51 185 99 b 390 414 185 240 274 414 b 419 388 411 414 419 400 b 410 333 419 371 410 363 b 456 275 410 306 422 275 b 472 283 460 275 469 276 z "},"¸":{"ha":472,"x_min":0,"x_max":0,"o":"m 218 -58 b 178 -53 218 -58 193 -53 b 165 -57 171 -53 165 -54 b 171 -62 165 -57 171 -60 b 167 -67 171 -64 169 -65 b 131 -103 150 -75 132 -87 l 131 -104 b 156 -143 131 -118 156 -122 b 110 -179 156 -169 128 -179 b 76 -171 89 -179 76 -171 b 67 -167 72 -168 69 -167 b 58 -178 61 -167 58 -174 b 117 -217 58 -190 81 -217 b 208 -157 185 -217 208 -179 b 179 -99 208 -121 179 -125 b 218 -58 179 -82 199 -61 z "},"¢":{"ha":493,"x_min":0,"x_max":0,"o":"m 483 592 b 461 556 478 581 469 569 b 60 140 199 538 60 276 b 142 -3 60 90 75 24 b 106 -62 128 -28 114 -49 b 99 -76 106 -62 99 -72 b 125 -86 99 -86 114 -86 b 183 -57 144 -86 169 -81 l 208 -14 l 210 -14 b 438 118 356 -14 438 82 b 422 133 438 118 435 133 b 403 125 418 133 411 132 b 299 97 403 125 367 97 b 272 99 289 97 281 97 l 354 243 b 464 436 354 243 408 340 b 507 378 482 411 479 378 b 524 386 513 378 521 379 b 619 519 564 472 619 507 b 533 554 619 539 572 550 b 561 599 544 572 554 589 b 568 613 561 599 568 607 b 542 622 568 621 550 622 b 483 592 522 622 497 615 z m 285 246 b 217 125 285 246 253 190 b 199 196 203 142 199 165 b 406 460 199 283 290 460 l 407 460 z "},"ˆ":{"ha":556,"x_min":0,"x_max":0,"o":"m 590 658 b 647 601 606 629 629 601 b 660 619 660 601 660 615 b 688 726 663 631 678 697 b 692 744 690 735 692 740 b 678 760 692 753 688 758 b 611 738 654 760 629 749 b 599 733 607 735 603 733 b 583 739 590 733 583 739 b 538 758 572 750 556 758 b 499 726 518 758 510 738 b 406 622 460 676 406 632 b 443 611 406 617 408 611 b 564 661 468 611 526 636 b 578 667 568 664 574 667 b 590 658 583 667 588 664 z "},":":{"ha":318,"x_min":0,"x_max":0,"o":"m 147 142 b 26 46 79 142 26 88 b 90 -4 26 15 54 -4 b 214 93 163 -4 214 47 b 147 142 214 124 185 142 z m 354 504 b 235 408 288 504 235 450 b 297 358 235 378 263 358 b 421 456 369 358 421 410 b 354 504 421 486 392 504 z "},",":{"ha":293,"x_min":0,"x_max":0,"o":"m 226 90 b 160 142 226 122 201 142 b 40 46 93 142 40 86 b 82 -3 40 22 51 4 b 90 -15 85 -3 90 -7 b 29 -82 90 -28 85 -50 b 26 -89 29 -82 26 -86 b 49 -99 26 -93 31 -99 b 226 90 111 -99 226 -18 z "},"©":{"ha":472,"x_min":0,"x_max":0,"o":"m 190 -28 b 514 272 374 -28 514 146 b 360 400 514 344 468 400 b 35 104 171 400 35 231 b 190 -28 35 31 82 -28 z m 346 363 b 451 261 419 363 451 318 b 210 15 451 158 350 15 b 99 114 132 15 99 58 b 346 363 99 217 208 363 z m 343 213 b 410 311 369 274 410 306 b 382 325 410 324 382 325 b 339 311 356 325 353 311 b 328 313 335 311 332 313 b 150 126 222 313 150 183 b 219 60 150 99 163 60 b 321 118 285 60 321 103 b 314 125 321 119 319 125 b 306 121 313 125 310 125 b 258 110 306 121 289 110 b 215 154 225 110 215 131 b 307 271 215 193 254 271 b 319 258 317 271 319 265 b 315 235 319 251 315 247 b 336 208 315 222 321 208 b 343 213 338 208 342 210 z "},"d":{"ha":564,"x_min":0,"x_max":0,"o":"m 514 400 b 217 100 514 354 301 100 b 188 142 197 100 188 114 b 446 439 188 239 332 439 b 514 400 499 439 514 414 z m 710 510 b 1139 1161 925 896 1139 1138 b 1101 1183 1139 1182 1108 1183 b 947 1122 1046 1183 975 1178 b 582 500 940 1108 647 585 b 568 494 579 496 572 494 b 483 513 553 494 536 513 b 339 486 421 513 378 503 b 28 51 157 408 28 181 b 101 -44 28 -26 72 -44 b 311 71 131 -44 193 -43 b 332 81 311 71 319 81 b 342 67 332 81 342 81 b 339 39 342 67 339 54 b 406 -36 339 8 349 -36 b 424 -19 406 -36 418 -37 b 710 510 469 126 710 510 z "},"†":{"ha":738,"x_min":0,"x_max":0,"o":"m 499 529 b 125 -112 499 529 189 -14 b 115 -133 125 -112 115 -124 b 154 -149 115 -149 140 -149 b 251 -101 185 -149 229 -139 b 613 528 325 25 592 493 l 621 544 l 640 544 b 810 543 682 544 692 543 b 911 633 875 543 911 619 b 892 647 911 644 900 647 b 744 642 883 647 835 642 b 678 643 707 642 693 643 b 747 757 699 681 722 719 b 757 778 747 757 757 768 b 717 793 757 792 731 793 b 621 746 686 793 643 783 l 563 644 b 357 646 507 644 435 646 b 256 556 292 646 256 569 b 275 542 256 544 267 542 b 450 546 317 542 360 546 l 508 546 b 499 529 504 540 501 533 z "},"‡":{"ha":738,"x_min":0,"x_max":0,"o":"m 397 57 b 567 56 439 57 449 56 b 668 146 632 56 668 132 b 649 160 668 157 657 160 b 400 157 569 160 489 157 l 613 528 l 621 544 l 640 544 b 810 543 682 544 692 543 b 911 633 875 543 911 619 b 892 647 911 644 900 647 b 678 644 822 647 754 644 b 747 757 700 682 724 719 b 757 778 747 757 757 768 b 717 793 757 792 731 793 b 621 746 686 793 643 783 l 563 644 b 357 646 507 644 435 646 b 256 556 292 646 256 569 b 275 542 256 544 267 542 b 450 546 317 542 360 546 l 508 546 b 499 529 504 540 501 533 b 285 157 499 529 388 335 b 114 158 235 158 178 158 b 13 68 49 158 13 82 b 32 54 13 57 24 54 b 207 58 74 54 117 58 l 228 58 b 125 -112 182 -19 143 -83 b 115 -133 125 -112 115 -124 b 154 -149 115 -149 140 -149 b 251 -101 185 -149 229 -139 l 343 57 l 397 57 z "},"°":{"ha":350,"x_min":0,"x_max":0,"o":"m 372 624 b 338 653 347 624 338 636 b 414 732 338 685 375 732 b 447 703 438 732 447 719 b 372 624 447 671 410 624 z m 354 579 b 517 722 440 579 517 663 b 432 782 517 756 492 782 b 269 643 339 782 269 703 b 354 579 269 607 294 579 z "},"¨":{"ha":556,"x_min":0,"x_max":0,"o":"m 521 694 b 469 733 521 718 499 733 b 372 657 418 733 372 693 b 424 617 372 633 393 617 b 521 694 478 617 521 660 z m 778 694 b 726 733 778 718 756 733 b 629 657 675 733 629 693 b 681 617 629 633 651 617 b 778 694 736 617 778 660 z "},"÷":{"ha":747,"x_min":0,"x_max":0,"o":"m 792 450 b 893 540 857 450 893 524 b 874 553 893 551 882 553 b 696 550 836 553 771 550 b 288 553 557 550 385 553 b 186 463 222 553 186 476 b 204 449 186 451 197 449 b 510 456 258 449 382 456 b 792 450 611 456 714 454 z m 717 706 b 664 744 715 729 693 744 b 567 668 614 744 567 704 b 618 628 567 644 589 628 b 717 706 671 628 717 671 z m 513 340 b 458 379 511 364 489 379 b 363 303 410 379 363 339 b 414 263 363 278 383 263 b 513 340 467 263 513 303 z "},"$":{"ha":700,"x_min":0,"x_max":0,"o":"m 735 326 b 604 579 735 433 665 511 b 760 849 639 639 704 754 b 792 790 786 829 792 801 b 753 649 792 700 753 660 b 789 633 753 633 779 633 b 1010 931 854 633 1010 890 b 964 953 1010 951 972 953 b 876 931 932 953 903 944 b 864 928 872 928 868 928 b 814 940 857 928 842 935 l 840 982 b 849 999 840 982 849 993 b 815 1013 849 1011 826 1013 b 743 975 792 1013 761 1004 l 728 950 l 718 950 b 351 708 604 950 351 903 b 474 501 351 633 414 567 b 251 113 429 424 328 244 b 221 196 225 140 221 178 b 293 407 221 308 293 396 b 268 422 293 419 279 422 b 254 421 261 422 254 421 b -22 22 164 421 -22 68 b 29 -3 -22 -1 21 -3 b 143 24 68 -3 108 8 b 156 28 147 26 151 28 b 192 14 163 28 174 21 l 165 -29 b 160 -44 161 -35 160 -40 b 190 -60 160 -56 172 -60 b 263 -22 214 -60 244 -51 l 274 -3 b 321 -6 288 -4 303 -6 b 735 326 567 -6 735 142 z m 525 439 b 581 292 557 394 581 347 b 344 78 581 124 435 78 b 321 79 336 78 328 78 z m 553 643 b 518 735 532 672 518 703 b 682 869 518 835 636 867 z "},"˙":{"ha":286,"x_min":0,"x_max":0,"o":"m 526 685 b 463 733 525 715 499 733 b 340 639 417 733 340 699 l 340 638 b 404 589 342 607 368 589 b 526 685 451 589 526 624 z "},"ı":{"ha":286,"x_min":0,"x_max":0,"o":"m 100 -71 b 118 -44 111 -71 118 -44 b 425 478 183 93 351 385 b 429 488 428 481 429 485 b 375 511 429 504 392 511 b 243 485 288 511 243 485 b 218 449 243 485 219 471 b 33 13 213 338 33 64 b 100 -71 33 -39 78 -71 z "},"e":{"ha":481,"x_min":0,"x_max":0,"o":"m 197 -79 b 264 -37 228 -79 264 -65 b 181 81 264 -11 181 -25 b 265 161 181 144 204 156 b 576 458 372 171 576 286 b 483 554 576 543 510 554 b 42 94 203 554 42 253 b 197 -79 42 0 83 -79 z m 442 424 b 236 233 442 317 300 233 b 213 249 213 233 213 249 b 403 467 213 331 329 467 b 442 424 414 467 442 465 z "},"é":{"ha":481,"x_min":0,"x_max":0,"o":"m 197 -79 b 42 94 83 -79 42 0 b 483 554 42 253 203 554 b 576 458 510 554 576 543 b 265 161 576 286 372 171 b 181 81 204 156 181 144 b 264 -37 181 -25 264 -11 b 197 -79 264 -65 228 -79 z m 442 424 b 403 467 442 465 414 467 b 213 249 329 467 213 331 b 236 233 213 249 213 233 b 442 424 300 233 442 317 z m 653 700 b 583 765 653 733 600 765 b 547 731 568 765 563 751 b 447 621 506 679 447 631 b 471 610 447 618 447 610 b 653 700 511 610 653 668 z "},"ê":{"ha":481,"x_min":0,"x_max":0,"o":"m 197 -79 b 42 94 83 -79 42 0 b 483 554 42 253 203 554 b 576 458 510 554 576 543 b 265 161 576 286 372 171 b 181 81 204 156 181 144 b 264 -37 181 -25 264 -11 b 197 -79 264 -65 228 -79 z m 442 424 b 403 467 442 465 414 467 b 213 249 329 467 213 331 b 236 233 213 249 213 233 b 442 424 300 233 442 317 z m 510 658 b 567 601 525 629 549 601 b 579 619 579 601 579 615 b 607 726 582 631 597 697 b 611 744 610 735 611 740 b 597 760 611 753 607 758 b 531 738 574 760 549 749 b 518 733 526 735 522 733 b 503 739 510 733 503 739 b 457 758 492 750 475 758 b 418 726 438 758 429 738 b 325 622 379 676 325 632 b 363 611 325 617 328 611 b 483 661 388 611 446 636 b 497 667 488 664 493 667 b 510 658 503 667 507 664 z "},"ë":{"ha":481,"x_min":0,"x_max":0,"o":"m 197 -79 b 264 -37 228 -79 264 -65 b 181 81 264 -11 181 -25 b 265 161 181 144 204 156 b 576 458 372 171 576 286 b 483 554 576 543 510 554 b 42 94 203 554 42 253 b 197 -79 42 0 83 -79 z m 442 424 b 236 233 442 317 300 233 b 213 249 213 233 213 249 b 403 467 213 331 329 467 b 442 424 414 467 442 465 z m 458 694 b 407 733 458 718 436 733 b 310 657 356 733 310 693 b 361 617 310 633 331 617 b 458 694 415 617 458 660 z m 715 694 b 664 733 715 718 693 733 b 567 657 613 733 567 693 b 618 617 567 633 589 617 b 715 694 674 617 715 660 z "},"è":{"ha":481,"x_min":0,"x_max":0,"o":"m 197 -79 b 264 -37 228 -79 264 -65 b 181 81 264 -11 181 -25 b 265 161 181 144 204 156 b 576 458 372 171 576 286 b 483 554 576 543 510 554 b 42 94 203 554 42 253 b 197 -79 42 0 83 -79 z m 442 424 b 236 233 442 317 300 233 b 213 249 213 233 213 249 b 403 467 213 331 329 467 b 442 424 414 467 442 465 z m 422 769 b 346 714 407 769 346 749 b 511 599 346 682 472 606 l 521 599 b 535 607 535 599 535 603 b 454 731 536 615 486 672 b 422 769 442 753 439 769 z "},"…":{"ha":860,"x_min":0,"x_max":0,"o":"m 139 140 b 19 46 72 140 19 86 b 83 -4 19 15 47 -4 b 207 93 154 -4 207 46 b 139 140 207 124 178 140 z m 432 140 b 313 46 365 140 313 86 b 376 -4 313 15 340 -4 b 500 93 447 -4 500 46 b 432 140 500 124 471 140 z m 725 140 b 606 46 658 140 606 86 b 669 -4 606 15 633 -4 b 793 93 740 -4 793 46 b 725 140 793 124 764 140 z "},"—":{"ha":975,"x_min":0,"x_max":0,"o":"m 874 190 b 975 281 939 190 975 264 b 956 293 975 292 964 293 b 622 290 918 293 697 290 b 214 293 483 290 311 293 b 113 203 149 293 113 217 b 131 189 113 192 124 189 b 436 196 185 189 308 196 b 874 190 538 196 796 194 z "},"–":{"ha":654,"x_min":0,"x_max":0,"o":"m 554 194 b 654 281 619 194 654 264 b 635 293 654 292 643 293 l 214 293 b 114 207 149 293 114 221 b 132 193 114 196 125 193 b 554 194 289 193 422 194 z "},"=":{"ha":878,"x_min":0,"x_max":0,"o":"m 922 540 b 1024 632 988 540 1024 617 b 1006 644 1024 642 1014 644 b 856 640 972 644 918 640 b 418 644 713 640 522 644 b 317 553 353 644 317 568 b 338 540 317 542 329 540 b 514 543 376 540 440 543 b 922 540 653 543 824 540 z m 793 317 b 894 407 858 317 894 393 b 875 419 894 418 883 419 b 696 417 836 419 771 417 b 288 419 557 417 386 419 b 186 329 222 419 186 343 b 206 315 186 318 197 315 b 385 319 244 315 310 319 b 793 317 522 319 694 317 z "},"ð":{"ha":589,"x_min":0,"x_max":0,"o":"m 589 507 b 574 501 585 503 579 501 b 471 518 563 501 549 518 b 35 57 225 518 35 215 b 107 -39 35 -19 79 -39 b 317 76 138 -39 197 -37 b 339 86 317 76 326 86 b 349 72 339 86 349 86 b 346 44 349 72 346 60 b 414 -29 346 -1 371 -29 b 431 -14 418 -29 426 -28 b 717 517 476 132 653 404 b 879 829 765 600 843 719 b 982 869 899 836 928 847 b 1021 942 1014 882 1021 918 b 1011 965 1021 957 1019 965 b 997 961 1004 965 997 961 b 897 918 960 943 925 929 l 897 929 b 742 1110 897 1010 853 1110 b 721 1090 742 1110 721 1103 b 739 1078 721 1090 731 1082 b 785 957 739 1078 785 1040 b 774 872 785 929 781 901 b 621 814 731 857 675 835 b 582 740 589 801 582 764 b 593 718 582 725 585 718 b 607 722 600 718 607 722 b 742 778 643 739 694 760 b 589 507 685 636 589 507 z m 521 406 b 224 106 521 360 308 106 b 194 147 204 106 194 119 b 453 446 194 244 339 446 b 521 406 506 446 521 419 z "},"!":{"ha":383,"x_min":0,"x_max":0,"o":"m 713 888 b 678 907 713 906 685 907 l 676 907 b 513 864 542 907 513 864 b 165 236 378 564 165 236 b 157 215 165 236 157 224 b 196 204 157 206 172 204 b 276 240 221 204 260 210 b 713 888 371 408 713 847 z m 213 100 b 150 149 211 131 186 149 b 25 53 103 149 25 115 b 89 4 25 22 53 4 b 213 100 135 4 213 39 z "},"¡":{"ha":415,"x_min":0,"x_max":0,"o":"m 338 528 b 401 479 338 499 365 479 b 524 576 450 479 524 514 b 460 625 524 606 497 625 b 338 528 413 625 338 589 z m -162 -260 b -129 -279 -162 -278 -136 -279 b 36 -236 -79 -279 3 -275 b 383 392 172 64 383 392 b 392 413 383 392 392 404 b 353 424 392 422 379 424 b 274 389 328 424 290 418 b -162 -260 179 219 -162 -219 z "},"f":{"ha":536,"x_min":0,"x_max":0,"o":"m 558 621 b 928 1113 681 621 928 922 b 871 1183 928 1174 900 1183 b 310 503 744 1183 500 844 b 272 492 304 493 290 492 l 250 492 b 203 482 233 492 215 490 b 153 426 164 457 153 439 b 165 413 153 418 158 413 b 236 379 224 413 236 393 b 233 368 236 375 235 371 b -282 -689 -75 -146 -282 -581 b -229 -753 -282 -718 -279 -753 b 517 228 6 -753 517 -15 b 439 368 517 340 439 329 b 617 446 439 414 617 446 b 667 492 664 458 667 486 l 667 493 b 651 508 667 507 651 508 b 492 500 576 508 525 500 b 447 532 461 500 447 507 b 768 993 447 600 692 993 b 779 978 775 993 779 988 b 561 654 779 922 672 729 b 543 629 557 651 543 639 b 558 621 543 625 547 621 z m 317 310 b 378 192 364 310 378 247 b -32 -499 378 -75 33 -499 b -53 -471 -51 -499 -53 -476 l -53 -469 b 286 286 -53 -368 111 -15 b 317 310 292 294 303 310 z "},"ﬁ":{"ha":797,"x_min":0,"x_max":0,"o":"m 593 -60 b 611 -33 604 -60 611 -33 b 918 490 678 104 844 396 b 922 500 921 493 922 497 b 869 522 922 515 886 522 b 576 514 767 522 672 514 b 447 547 503 514 447 521 b 715 931 447 615 639 931 b 732 906 726 931 732 921 b 567 650 732 854 674 735 b 553 625 567 650 553 635 b 569 615 553 619 557 615 b 878 1029 678 615 878 838 b 819 1099 878 1090 847 1099 b 310 518 692 1099 500 860 b 272 507 304 508 290 507 l 250 507 b 201 497 232 507 214 506 b 157 443 168 474 157 456 b 172 428 157 433 164 428 b 236 396 225 428 236 411 b 231 376 236 388 232 379 b -199 -514 -72 -126 -199 -419 b -133 -593 -199 -543 -192 -593 b 518 199 114 -593 518 19 b 421 336 518 300 460 336 l 419 336 b 397 322 414 336 397 335 b 406 267 397 307 406 300 b 3 -410 406 21 125 -410 b -19 -374 -15 -410 -19 -386 b 203 157 -19 -294 63 -97 b 710 456 358 436 538 449 b 526 24 700 342 526 75 b 593 -60 526 -28 571 -60 z m 1019 693 b 929 604 1019 657 979 618 b 899 600 918 601 908 600 b 833 650 863 600 833 619 b 956 746 833 710 910 746 b 1019 693 989 746 1019 726 z "},"ﬂ":{"ha":761,"x_min":0,"x_max":0,"o":"m 531 -62 b 610 -222 531 -114 543 -222 b 622 -201 621 -222 622 -208 b 1328 1146 622 206 1217 1043 b 1336 1161 1335 1153 1336 1160 b 1299 1183 1335 1182 1306 1183 b 1131 1099 1243 1183 1164 1151 b 531 -62 924 778 531 168 z m 558 621 b 543 629 547 621 543 625 b 561 654 543 639 557 651 b 779 978 672 729 779 922 b 768 993 779 988 775 993 b 447 532 692 993 447 600 b 492 500 447 507 461 500 b 651 508 525 500 576 508 b 667 493 651 508 667 507 l 667 492 b 617 446 667 486 664 458 b 439 368 617 446 439 414 b 517 228 439 329 517 340 b -229 -753 517 -15 6 -753 b -282 -689 -279 -753 -282 -718 b 233 368 -282 -581 -75 -146 b 236 379 235 371 236 375 b 165 413 236 393 224 413 b 153 426 158 413 153 418 b 203 482 153 439 164 457 b 250 492 215 490 233 492 l 272 492 b 310 503 290 492 304 493 b 871 1183 500 844 744 1183 b 928 1113 900 1183 928 1174 b 558 621 928 922 681 621 z m 317 310 b 286 286 303 310 292 294 b -53 -469 111 -15 -53 -368 l -53 -471 b -32 -499 -53 -476 -51 -499 b 378 192 33 -499 378 -75 b 317 310 378 247 364 310 z "},"⁄":{"ha":507,"x_min":0,"x_max":0,"o":"m 0 24 b 847 896 132 165 847 896 b 890 936 847 896 881 926 b 900 953 897 943 900 949 b 863 968 900 963 885 968 b 779 935 856 968 808 967 b -68 64 669 818 -68 64 b -111 24 -68 64 -101 33 b -119 7 -117 17 -119 11 b -82 -8 -119 -8 -94 -8 b 0 24 -71 -8 -28 -7 z "},"g":{"ha":592,"x_min":0,"x_max":0,"o":"m -143 -699 b -168 -665 -167 -699 -168 -671 l -168 -664 b 179 -139 -168 -492 76 -190 b 196 -121 188 -135 196 -131 b 179 -111 196 -112 185 -111 l 175 -111 b -340 -776 6 -111 -340 -526 b -282 -881 -340 -849 -315 -881 b 649 374 63 -881 649 374 b 650 381 650 376 650 379 b 597 401 650 396 614 401 b 526 382 531 401 526 382 b 247 132 411 200 296 132 b 218 167 226 132 218 147 b 526 472 218 292 369 472 b 696 429 656 472 674 429 b 719 471 715 429 719 463 b 581 563 719 554 600 563 b 43 56 240 563 43 231 b 100 -29 43 39 43 -29 b 363 110 235 -29 328 110 b 374 89 368 110 374 106 b -143 -699 374 60 -10 -699 z "},"ß":{"ha":760,"x_min":0,"x_max":0,"o":"m 628 278 b 304 58 628 164 424 58 b 286 60 299 58 288 60 b 267 47 275 60 267 47 b 372 -10 267 0 318 -10 b 779 279 579 -10 779 132 b 671 488 779 374 671 418 b 1025 804 671 594 1025 621 b 782 940 1025 933 838 940 b 449 824 600 940 482 901 b -26 -19 356 613 -26 17 l -26 -22 b 19 -40 -26 -39 3 -40 b 156 11 43 -40 135 -37 b 590 796 194 104 497 678 b 754 864 622 836 689 864 b 863 794 797 864 863 856 b 506 503 863 619 506 606 b 628 278 506 411 628 424 z "},"`":{"ha":556,"x_min":0,"x_max":0,"o":"m 493 769 b 417 714 478 769 417 749 b 582 599 417 682 543 606 l 592 599 b 606 607 606 599 606 603 b 525 731 607 615 557 672 b 493 769 513 753 510 769 z "},">":{"ha":785,"x_min":0,"x_max":0,"o":"m 100 181 b 785 383 197 181 697 339 b 863 471 849 415 863 456 b 375 649 863 511 765 492 b 358 654 375 649 368 654 b 297 574 326 654 297 604 b 594 438 297 526 594 488 b 156 288 594 390 344 335 b 82 194 118 278 82 232 b 100 181 82 185 88 181 z "},"≥":{"ha":785,"x_min":0,"x_max":0,"o":"m 169 321 b 854 524 267 321 767 479 b 932 611 918 556 932 596 b 444 789 932 651 835 632 b 428 794 444 789 438 794 b 367 714 396 794 367 744 b 664 578 367 667 664 628 b 225 428 664 531 414 475 b 151 335 188 418 151 372 b 169 321 151 325 157 321 z m 425 179 b 626 178 463 179 519 178 b 718 260 685 178 718 247 b 701 272 718 269 708 272 b 692 271 696 272 692 271 b 561 268 650 268 603 268 b 167 272 415 268 290 272 b 75 189 108 272 75 203 b 94 178 75 179 86 178 l 101 178 b 253 181 143 181 200 181 b 425 179 329 181 378 179 z "},"«":{"ha":822,"x_min":0,"x_max":0,"o":"m 540 218 b 978 507 540 268 839 432 l 1007 522 b 1019 538 1017 528 1019 533 b 951 557 1019 557 975 557 b 914 556 931 557 914 556 b 397 231 851 556 397 301 b 533 -39 397 178 463 31 b 626 -65 560 -65 596 -65 b 658 -47 626 -65 658 -65 b 654 -33 658 -43 657 -39 b 540 218 654 -33 540 151 z m 236 246 b 643 524 236 307 542 469 b 656 539 653 529 656 535 b 590 558 656 558 613 558 b 553 557 571 558 553 557 b 94 258 481 557 94 331 b 242 -47 94 215 175 17 b 335 -72 267 -72 306 -72 b 368 -53 335 -72 368 -72 b 364 -40 368 -49 367 -46 b 236 246 364 -40 236 161 z "},"»":{"ha":904,"x_min":0,"x_max":0,"o":"m 442 267 b 11 -19 442 217 151 57 l -25 -39 b -37 -53 -35 -44 -37 -49 b 26 -72 -37 -72 15 -72 b 68 -71 49 -72 68 -71 b 585 254 131 -71 585 182 b 449 524 585 306 519 454 l 447 525 b 356 549 438 535 425 549 b 324 531 356 549 324 549 b 328 517 324 526 325 522 b 442 267 328 517 442 332 z m 746 239 b 360 -29 746 182 476 35 l 339 -40 b 326 -54 329 -44 326 -50 b 388 -74 326 -74 376 -74 b 428 -72 408 -74 428 -72 b 888 226 501 -72 888 154 b 739 531 888 269 808 468 l 736 533 b 646 557 726 543 714 557 b 614 538 646 557 614 557 b 618 524 614 533 615 529 b 746 239 618 524 746 324 z "},"‹":{"ha":519,"x_min":0,"x_max":0,"o":"m 238 218 b 675 507 238 268 536 432 l 704 522 b 717 538 714 528 717 533 b 649 557 717 557 672 557 b 611 556 628 557 611 556 b 94 231 549 556 94 301 b 231 -39 94 178 160 31 b 324 -65 257 -65 293 -65 b 356 -47 324 -65 356 -65 b 351 -33 356 -43 354 -39 b 238 218 351 -33 238 151 z "},"›":{"ha":601,"x_min":0,"x_max":0,"o":"m 442 267 b 11 -19 442 217 151 57 l -25 -39 b -37 -53 -35 -44 -37 -49 b 26 -72 -37 -72 15 -72 b 68 -71 49 -72 68 -71 b 585 254 131 -71 585 182 b 449 524 585 306 519 454 l 447 525 b 356 549 438 535 425 549 b 324 531 356 549 324 549 b 328 517 324 526 325 522 b 442 267 328 517 442 332 z "},"h":{"ha":650,"x_min":0,"x_max":0,"o":"m 707 449 b 647 514 707 490 686 514 b 358 340 539 514 358 340 b 331 326 346 331 336 326 b 319 342 322 326 319 333 b 776 1049 319 413 668 1049 b 800 1019 797 1049 800 1039 b 504 628 800 974 711 772 b 496 614 504 628 496 621 b 521 601 496 603 510 601 b 575 613 547 601 563 607 b 954 1147 699 669 954 931 b 889 1224 954 1189 943 1224 b -43 -82 586 1224 71 101 b -47 -93 -46 -86 -47 -89 b 1 -110 -47 -101 -37 -110 b 106 -65 54 -110 82 -108 b 519 354 142 4 394 354 b 540 333 519 354 540 353 b 374 -12 540 269 457 108 b 368 -28 374 -12 368 -21 b 389 -39 368 -33 372 -39 b 497 13 421 -39 467 -24 b 707 449 528 49 707 285 z "},"˝":{"ha":556,"x_min":0,"x_max":0,"o":"m 618 700 b 549 765 618 733 565 765 b 513 731 533 765 528 751 b 413 621 471 679 413 631 b 436 610 413 618 413 610 b 618 700 476 610 618 668 z m 804 700 b 735 765 804 733 751 765 b 699 731 719 765 714 751 b 599 621 657 679 599 631 b 622 610 599 618 599 610 b 804 700 663 610 804 668 z "},"-":{"ha":631,"x_min":0,"x_max":0,"o":"m 531 194 b 631 281 596 194 631 264 b 611 293 631 292 619 293 l 190 293 b 90 207 125 293 90 221 b 108 193 90 196 101 193 b 531 194 265 193 399 194 z "},"i":{"ha":286,"x_min":0,"x_max":0,"o":"m 100 -71 b 118 -44 111 -71 118 -44 b 425 478 183 93 351 385 b 429 488 428 481 429 485 b 375 511 429 504 392 511 b 243 485 288 511 243 485 b 218 449 243 485 219 471 b 33 13 213 338 33 64 b 100 -71 33 -39 78 -71 z m 526 685 b 463 733 525 715 499 733 b 340 639 417 733 340 699 l 340 638 b 404 589 342 607 368 589 b 526 685 451 589 526 624 z "},"í":{"ha":286,"x_min":0,"x_max":0,"o":"m 100 -71 b 33 13 78 -71 33 -39 b 218 449 33 64 213 338 b 243 485 219 471 243 485 b 375 511 243 485 288 511 b 429 488 392 511 429 504 b 425 478 429 485 428 481 b 118 -44 351 385 183 93 b 100 -71 118 -44 111 -71 z m 532 700 b 463 765 532 733 479 765 b 426 731 447 765 442 751 b 326 621 385 679 326 631 b 350 610 326 618 326 610 b 532 700 390 610 532 668 z "},"î":{"ha":286,"x_min":0,"x_max":0,"o":"m 100 -71 b 33 13 78 -71 33 -39 b 218 449 33 64 213 338 b 243 485 219 471 243 485 b 375 511 243 485 288 511 b 429 488 392 511 429 504 b 425 478 429 485 428 481 b 118 -44 351 385 183 93 b 100 -71 118 -44 111 -71 z m 432 658 b 489 601 447 629 471 601 b 501 619 501 601 501 615 b 529 726 504 631 519 697 b 533 744 532 735 533 740 b 519 760 533 753 529 758 b 453 738 496 760 471 749 b 440 733 449 735 444 733 b 425 739 432 733 425 739 b 379 758 414 750 397 758 b 340 726 360 758 351 738 b 247 622 301 676 247 632 b 285 611 247 617 250 611 b 406 661 310 611 368 636 b 419 667 410 664 415 667 b 432 658 425 667 429 664 z "},"ï":{"ha":286,"x_min":0,"x_max":0,"o":"m 100 -71 b 118 -44 111 -71 118 -44 b 425 478 183 93 351 385 b 429 488 428 481 429 485 b 375 511 429 504 392 511 b 243 485 288 511 243 485 b 218 449 243 485 219 471 b 33 13 213 338 33 64 b 100 -71 33 -39 78 -71 z m 365 694 b 314 733 365 718 343 733 b 217 657 263 733 217 693 b 268 617 217 633 238 617 b 365 694 322 617 365 660 z m 622 694 b 571 733 622 718 600 733 b 474 657 519 733 474 693 b 525 617 474 633 496 617 b 622 694 581 617 622 660 z "},"ì":{"ha":286,"x_min":0,"x_max":0,"o":"m 100 -71 b 118 -44 111 -71 118 -44 b 425 478 183 93 351 385 b 429 488 428 481 429 485 b 375 511 429 504 392 511 b 243 485 288 511 243 485 b 218 449 243 485 219 471 b 33 13 213 338 33 64 b 100 -71 33 -39 78 -71 z m 317 769 b 240 714 301 769 240 749 b 406 599 240 682 367 606 l 415 599 b 429 607 429 599 429 603 b 349 731 431 615 381 672 b 317 769 336 753 333 769 z "},"j":{"ha":324,"x_min":0,"x_max":0,"o":"m 208 449 b 64 83 201 338 64 83 b -462 -704 -28 -101 -329 -704 b -486 -669 -481 -704 -486 -687 b -133 -144 -486 -497 -236 -196 b -115 -126 -133 -144 -115 -136 b -132 -117 -115 -118 -126 -117 b -660 -782 -304 -117 -656 -494 b -604 -886 -660 -817 -656 -886 b 418 478 -246 -886 226 200 b 421 486 419 481 421 483 b 367 511 421 503 383 511 b 233 485 278 511 233 485 b 208 449 233 485 210 471 z m 519 685 b 457 733 519 715 493 733 b 333 639 411 733 333 700 b 396 589 333 607 358 589 b 519 685 446 589 519 624 z "},"k":{"ha":625,"x_min":0,"x_max":0,"o":"m 497 185 b 760 472 503 246 760 317 b 692 536 760 515 732 536 b 372 390 542 536 372 390 b 344 376 361 381 351 376 b 328 394 333 376 328 386 b 767 1049 328 467 657 1049 b 790 1019 786 1049 790 1039 b 494 628 790 974 701 772 b 486 615 494 628 486 621 b 513 601 486 603 500 601 b 556 610 535 601 546 606 b 944 1147 675 658 944 925 b 879 1225 944 1189 932 1225 b 38 117 617 1225 201 451 b 28 72 31 101 28 86 b 88 -18 28 24 63 -18 b 106 -6 94 -18 101 -14 b 563 415 181 135 438 415 b 582 396 576 415 582 404 b 374 208 582 303 415 222 b 358 189 363 206 358 192 b 522 -181 358 79 428 -181 b 536 -169 522 -181 536 -179 b 494 124 536 -165 494 -25 b 497 185 494 144 496 165 z "},"l":{"ha":265,"x_min":0,"x_max":0,"o":"m 35 -62 b 114 -222 35 -114 47 -222 b 126 -201 125 -222 126 -208 b 832 1146 126 206 721 1043 b 840 1161 839 1153 840 1160 b 803 1183 839 1182 810 1183 b 635 1099 747 1183 668 1151 b 35 -62 428 778 35 168 z "},"<":{"ha":769,"x_min":0,"x_max":0,"o":"m 892 640 b 206 418 793 640 293 463 b 129 331 142 385 129 346 b 617 171 129 290 226 329 b 632 165 617 171 622 165 b 693 246 663 165 693 215 b 406 375 693 294 406 336 b 836 532 406 417 646 485 b 910 628 874 542 910 585 b 892 640 910 632 908 640 z "},"≤":{"ha":769,"x_min":0,"x_max":0,"o":"m 419 179 b 621 178 457 179 513 178 b 713 260 679 178 713 247 b 696 272 713 269 703 272 b 686 271 690 272 686 271 b 554 268 643 268 596 268 b 161 272 408 268 285 272 b 69 189 101 272 69 203 b 88 178 69 179 81 178 b 419 179 129 178 254 179 z m 979 794 b 293 572 881 794 381 617 b 217 485 229 539 217 500 b 704 325 217 444 314 483 b 719 319 704 325 710 319 b 781 400 750 319 781 369 b 493 529 781 449 493 490 b 924 686 493 571 733 639 b 997 782 961 696 997 739 b 979 794 997 786 996 794 z "},"¬":{"ha":747,"x_min":0,"x_max":0,"o":"m 892 532 b 893 540 892 536 893 538 b 874 553 893 551 882 553 b 696 550 836 553 771 550 b 288 553 557 550 385 553 b 186 463 222 553 186 476 b 204 449 186 451 197 449 b 510 456 258 449 382 456 b 742 451 590 456 672 454 b 618 246 706 389 656 304 b 608 225 618 246 608 235 b 647 210 608 210 633 210 b 744 257 678 210 722 219 b 890 529 783 324 865 453 l 893 533 z "},"ł":{"ha":319,"x_min":0,"x_max":0,"o":"m 69 -62 b 149 -222 69 -114 82 -222 b 161 -201 160 -222 161 -208 b 356 378 161 -47 244 165 l 514 439 b 553 511 546 451 553 488 b 543 535 553 526 551 535 b 529 531 536 535 529 531 b 411 481 483 508 440 490 b 867 1146 588 796 804 1088 b 875 1161 874 1153 875 1160 b 838 1183 874 1182 844 1183 b 669 1099 782 1183 704 1151 b 260 425 556 924 389 664 l 153 383 b 114 310 121 371 114 333 b 125 288 114 294 117 288 b 139 292 132 288 139 292 l 203 318 b 69 -62 124 161 69 24 z "},"m":{"ha":975,"x_min":0,"x_max":0,"o":"m 865 103 b 1044 465 936 219 1044 381 b 976 525 1044 525 997 525 b 678 342 864 525 678 342 b 656 329 671 333 663 329 b 644 340 650 329 644 333 b 649 354 644 344 646 349 b 672 435 665 388 672 414 b 618 482 672 467 654 482 b 363 354 493 482 363 354 b 347 349 357 350 351 349 b 332 358 336 349 332 358 b 428 538 332 401 428 508 b 386 551 428 549 404 551 b 322 538 346 551 322 538 b -7 -25 258 514 -7 17 b 28 -43 -7 -31 -4 -43 b 133 -1 44 -43 106 -40 b 506 344 133 -1 349 344 b 525 321 513 344 525 338 b 390 35 525 249 390 94 b 443 17 390 18 421 17 b 513 50 460 17 492 21 b 847 364 513 50 732 364 b 867 343 854 364 867 361 b 717 7 867 289 717 121 b 765 -69 717 -7 729 -69 b 865 103 779 -69 806 4 z "},"¯":{"ha":556,"x_min":0,"x_max":0,"o":"m 682 607 b 736 682 717 607 736 668 b 725 692 736 690 731 692 b 632 689 706 692 671 689 b 415 692 558 689 467 692 b 363 617 382 692 363 629 b 372 606 363 608 368 606 b 533 611 400 606 465 611 b 682 607 588 611 642 610 z "},"−":{"ha":747,"x_min":0,"x_max":0,"o":"m 792 450 b 893 540 857 450 893 524 b 874 553 893 551 882 553 b 696 550 836 553 771 550 b 288 553 557 550 385 553 b 186 463 222 553 186 476 b 204 449 186 451 197 449 b 510 456 258 449 382 456 b 792 450 611 456 714 454 z "},"µ":{"ha":617,"x_min":0,"x_max":0,"o":"m 592 460 b 250 136 439 256 335 136 b 218 175 231 136 218 150 b 417 560 218 296 417 540 b 385 576 417 572 400 576 b 338 571 371 576 351 575 b 118 282 271 554 181 415 b -249 -406 -90 -75 -249 -335 b -168 -501 -249 -454 -199 -501 b -146 -485 -158 -501 -150 -496 b 74 -17 -106 -369 -29 -201 b 114 -28 86 -25 101 -28 b 379 125 196 -28 258 8 b 400 135 379 125 388 135 b 410 125 400 135 410 135 b 404 72 410 118 404 93 b 460 -17 404 28 418 -17 b 478 0 460 -17 472 -18 b 740 482 522 146 740 482 b 744 493 743 486 744 490 b 703 510 744 508 717 510 b 592 460 658 510 618 497 z "},"×":{"ha":661,"x_min":0,"x_max":0,"o":"m 736 753 b 549 594 689 711 622 656 l 525 746 b 458 792 518 790 504 792 l 450 792 b 413 760 432 792 413 785 b 457 518 429 679 444 599 b 103 226 318 401 174 282 b 81 200 103 226 81 211 b 135 186 81 186 121 186 b 254 228 169 186 217 194 b 474 414 308 275 388 343 l 503 233 b 574 186 508 196 544 186 b 618 210 588 186 618 188 b 615 222 618 217 615 222 b 565 490 603 271 583 382 b 888 753 694 597 822 701 b 911 779 888 753 911 768 b 857 793 911 792 871 793 b 736 753 821 793 774 785 z "},"n":{"ha":665,"x_min":0,"x_max":0,"o":"m 396 -60 b 751 481 538 -60 751 411 b 700 540 751 535 717 540 b 372 381 590 540 467 454 b 358 375 367 376 363 375 b 344 386 347 375 344 386 b 411 513 344 415 411 483 b 378 526 411 524 394 526 b 314 513 338 526 314 513 b -3 22 250 489 -3 64 b 33 4 -3 17 1 4 b 129 46 50 4 101 7 b 540 383 190 131 421 383 b 563 358 540 383 563 383 b 360 -33 563 281 388 8 b 357 -42 360 -33 357 -37 b 396 -60 357 -50 364 -60 z "},"ñ":{"ha":665,"x_min":0,"x_max":0,"o":"m 396 -60 b 751 481 538 -60 751 411 b 700 540 751 535 717 540 b 372 381 590 540 467 454 b 358 375 367 376 363 375 b 344 386 347 375 344 386 b 411 513 344 415 411 483 b 378 526 411 524 394 526 b 314 513 338 526 314 513 b -3 22 250 489 -3 64 b 33 4 -3 17 1 4 b 129 46 50 4 101 7 b 540 383 190 131 421 383 b 563 358 540 383 563 383 b 360 -33 563 281 388 8 b 357 -42 360 -33 357 -37 b 396 -60 357 -50 364 -60 z m 501 594 b 706 686 651 594 706 664 b 699 694 706 693 701 694 l 696 694 b 606 686 661 689 632 686 b 483 708 525 686 483 708 b 403 624 460 708 403 647 b 501 594 403 608 419 594 z "},"#":{"ha":775,"x_min":0,"x_max":0,"o":"m 753 724 l 704 640 b 554 642 656 640 603 642 b 611 735 576 679 596 711 b 621 756 611 735 621 746 b 582 771 621 769 596 771 b 485 724 551 771 507 761 b 439 644 471 701 456 674 l 350 644 b 249 553 285 644 249 568 b 269 540 249 542 261 540 l 276 540 b 382 543 303 542 340 543 b 313 419 360 501 335 460 l 219 419 b 118 329 154 419 118 343 b 138 315 118 318 129 315 b 147 317 143 315 147 317 b 254 319 174 318 213 319 b 196 224 232 281 211 247 b 188 203 196 224 188 213 b 226 188 188 188 221 188 b 322 235 257 188 300 197 l 371 319 b 522 318 421 319 472 319 b 464 224 499 281 479 246 b 456 203 464 224 456 213 b 494 188 456 188 488 188 b 590 235 525 188 568 197 l 638 317 l 725 317 b 826 407 790 317 826 393 b 807 421 826 418 815 421 b 797 419 801 421 797 419 b 693 417 771 418 735 417 l 764 540 l 854 540 b 956 632 919 540 956 617 b 938 644 956 642 946 644 b 928 643 932 644 928 643 b 821 640 901 642 864 640 b 879 735 843 678 864 711 b 889 756 879 735 889 746 b 850 771 889 769 864 771 b 753 724 819 771 775 761 z m 650 542 l 579 417 l 426 417 l 497 543 b 650 542 547 543 599 543 z "},"o":{"ha":592,"x_min":0,"x_max":0,"o":"m 210 -43 b 597 246 471 -43 597 246 b 693 374 653 271 693 331 b 682 397 693 393 688 397 b 633 383 671 397 664 383 b 599 400 604 383 599 393 b 615 461 599 417 615 422 b 489 554 615 538 513 554 b 47 132 243 554 47 307 b 210 -43 47 -33 182 -43 z m 429 221 b 264 49 429 167 371 49 b 186 129 192 49 186 121 b 436 479 186 247 308 479 b 486 432 444 479 486 476 b 381 321 486 346 424 367 b 342 228 358 299 342 257 b 350 215 342 224 343 215 b 361 219 353 215 356 217 b 413 232 361 219 392 232 b 429 221 422 232 429 229 z "},"ó":{"ha":578,"x_min":0,"x_max":0,"o":"m 210 -43 b 47 132 182 -43 47 -33 b 489 554 47 307 243 554 b 615 461 513 554 615 538 b 599 400 615 422 599 417 b 633 383 599 393 604 383 b 682 397 664 383 671 397 b 693 374 688 397 693 393 b 597 246 693 331 653 271 b 210 -43 597 246 471 -43 z m 429 221 b 413 232 429 229 422 232 b 361 219 392 232 361 219 b 350 215 356 217 353 215 b 342 228 343 215 342 224 b 381 321 342 257 358 299 b 486 432 424 367 486 346 b 436 479 486 476 444 479 b 186 129 308 479 186 247 b 264 49 186 121 192 49 b 429 221 371 49 429 167 z m 632 700 b 563 765 632 733 579 765 b 526 731 547 765 542 751 b 426 621 485 679 426 631 b 450 610 426 618 426 610 b 632 700 490 610 632 668 z "},"ô":{"ha":578,"x_min":0,"x_max":0,"o":"m 210 -43 b 47 132 182 -43 47 -33 b 489 554 47 307 243 554 b 615 461 513 554 615 538 b 599 400 615 422 599 417 b 633 383 599 393 604 383 b 682 397 664 383 671 397 b 693 374 688 397 693 393 b 597 246 693 331 653 271 b 210 -43 597 246 471 -43 z m 429 221 b 413 232 429 229 422 232 b 361 219 392 232 361 219 b 350 215 356 217 353 215 b 342 228 343 215 342 224 b 381 321 342 257 358 299 b 486 432 424 367 486 346 b 436 479 486 476 444 479 b 186 129 308 479 186 247 b 264 49 186 121 192 49 b 429 221 371 49 429 167 z m 535 658 b 592 601 550 629 574 601 b 604 619 604 601 604 615 b 632 726 607 631 622 697 b 636 744 635 735 636 740 b 622 760 636 753 632 758 b 556 738 599 760 574 749 b 543 733 551 735 547 733 b 528 739 535 733 528 739 b 482 758 517 750 500 758 b 443 726 463 758 454 738 b 350 622 404 676 350 632 b 388 611 350 617 353 611 b 508 661 413 611 471 636 b 522 667 513 664 518 667 b 535 658 528 667 532 664 z "},"ö":{"ha":592,"x_min":0,"x_max":0,"o":"m 224 -43 b 611 246 485 -43 611 246 b 707 374 667 271 707 331 b 696 397 707 393 701 397 b 647 383 685 397 678 383 b 613 400 618 383 613 393 b 629 461 613 417 629 422 b 503 554 629 538 526 554 b 61 132 257 554 61 307 b 224 -43 61 -33 196 -43 z m 443 221 b 278 49 443 167 385 49 b 200 129 206 49 200 121 b 450 479 200 247 322 479 b 500 432 458 479 500 476 b 394 321 500 346 438 367 b 356 228 372 299 356 257 b 364 215 356 224 357 215 b 375 219 367 215 369 217 b 426 232 375 219 406 232 b 443 221 436 232 443 229 z m 492 694 b 440 733 492 718 469 733 b 343 657 389 733 343 693 b 394 617 343 633 364 617 b 492 694 449 617 492 660 z m 749 694 b 697 733 749 718 726 733 b 600 657 646 733 600 693 b 651 617 600 633 622 617 b 749 694 707 617 749 660 z "},"œ":{"ha":865,"x_min":0,"x_max":0,"o":"m 582 -100 b 649 -58 613 -100 649 -86 b 565 60 649 -32 565 -46 b 650 140 565 124 589 135 b 961 438 757 150 961 265 b 868 533 961 522 894 533 b 613 436 767 533 681 493 b 615 461 614 442 615 450 b 489 554 615 538 513 554 b 47 132 243 554 47 307 b 210 -43 47 -33 182 -43 b 429 33 297 -43 371 -10 b 582 -100 440 -42 485 -100 z m 429 221 b 264 49 429 167 371 49 b 186 129 192 49 186 121 b 436 479 186 247 308 479 b 486 432 444 479 486 476 b 381 321 486 346 424 367 b 342 228 358 299 342 257 b 350 215 342 224 343 215 b 361 219 353 215 356 217 b 413 232 361 219 392 232 b 429 221 422 232 429 229 z m 826 403 b 621 213 826 296 685 213 b 597 228 597 213 597 228 b 788 446 597 310 714 446 b 826 403 799 446 826 444 z "},"˛":{"ha":493,"x_min":0,"x_max":0,"o":"m 317 -29 b 322 -6 319 -25 322 -15 b 310 15 322 6 319 15 b 185 -112 247 14 185 -56 b 272 -193 185 -168 233 -193 b 317 -162 297 -193 317 -182 b 311 -146 317 -157 315 -151 b 246 -101 265 -144 246 -125 b 317 -29 246 -74 274 -42 z "},"ò":{"ha":578,"x_min":0,"x_max":0,"o":"m 210 -43 b 597 246 471 -43 597 246 b 693 374 653 271 693 331 b 682 397 693 393 688 397 b 633 383 671 397 664 383 b 599 400 604 383 599 393 b 615 461 599 417 615 422 b 489 554 615 538 513 554 b 47 132 243 554 47 307 b 210 -43 47 -33 182 -43 z m 429 221 b 264 49 429 167 371 49 b 186 129 192 49 186 121 b 436 479 186 247 308 479 b 486 432 444 479 486 476 b 381 321 486 346 424 367 b 342 228 358 299 342 257 b 350 215 342 224 343 215 b 361 219 353 215 356 217 b 413 232 361 219 392 232 b 429 221 422 232 429 229 z m 472 769 b 396 714 457 769 396 749 b 561 599 396 682 522 606 l 571 599 b 585 607 585 599 585 603 b 504 731 586 615 536 672 b 472 769 492 753 489 769 z "},"½":{"ha":1010,"x_min":0,"x_max":0,"o":"m 694 78 b 1121 508 694 206 1121 364 b 1026 579 1121 574 1026 579 b 922 567 956 579 922 567 b 853 586 906 579 878 586 b 729 425 819 583 731 436 b 744 417 729 419 736 417 b 785 432 753 417 764 417 b 957 517 785 432 857 517 b 997 483 963 517 997 515 b 519 14 997 383 581 226 b 518 8 518 11 518 10 b 553 -4 518 -1 528 -4 b 717 0 582 -4 638 0 b 861 -4 781 0 778 -4 b 988 179 896 -4 985 158 b 975 188 988 185 983 188 b 939 174 967 188 953 188 b 740 53 939 174 847 53 b 694 78 724 53 694 56 z m 207 22 b 997 833 463 297 733 561 b 1006 847 1003 840 1006 844 b 972 861 1006 861 983 861 b 878 832 958 861 904 858 b 88 22 751 701 107 38 b 79 7 82 15 79 11 b 111 -7 79 -7 103 -7 b 207 22 119 -7 181 -6 z m 275 343 b 550 828 289 411 514 783 b 560 849 550 828 560 839 b 528 863 560 856 547 863 b 313 760 463 863 313 799 b 374 725 313 744 374 764 b 367 697 374 718 372 708 b 126 313 260 493 160 338 b 122 303 126 313 122 308 b 196 283 122 294 133 283 b 271 310 247 283 271 293 l 271 319 b 275 343 271 322 271 328 z "},"¼":{"ha":968,"x_min":0,"x_max":0,"o":"m 1063 560 b 1013 574 1063 568 1058 574 b 914 557 988 574 940 571 b 513 181 822 510 513 257 b 706 144 513 150 611 144 l 725 144 b 640 11 661 40 640 21 b 699 -7 640 3 649 -7 b 763 17 740 -7 754 -3 l 775 53 b 822 147 782 69 799 104 l 857 147 b 908 197 890 147 908 188 b 900 208 908 208 906 208 b 854 206 896 207 879 206 b 1051 539 928 339 1028 508 b 1063 560 1051 539 1063 551 z m 207 22 b 997 833 463 297 733 561 b 1006 847 1003 840 1006 844 b 972 861 1006 861 983 861 b 878 832 958 861 904 858 b 88 22 751 701 107 38 b 79 7 82 15 79 11 b 111 -7 79 -7 103 -7 b 207 22 119 -7 181 -6 z m 275 343 b 550 828 289 411 514 783 b 560 849 550 828 560 839 b 528 863 560 856 547 863 b 313 760 463 863 313 799 b 374 725 313 744 374 764 b 367 697 374 718 372 708 b 126 313 260 493 160 338 b 122 303 126 313 122 308 b 196 283 122 294 133 283 b 271 310 247 283 271 293 l 271 319 b 275 343 271 322 271 328 z m 889 435 b 761 204 836 335 796 263 b 644 235 701 207 644 214 b 882 457 644 283 826 457 b 892 446 890 457 892 451 b 889 435 892 440 889 435 z "},"¹":{"ha":342,"x_min":0,"x_max":0,"o":"m 275 343 b 550 828 289 411 514 783 b 560 849 550 828 560 839 b 528 863 560 856 547 863 b 313 760 463 863 313 799 b 374 725 313 744 374 764 b 367 697 374 718 372 708 b 126 313 260 493 160 338 b 122 303 126 313 122 308 b 196 283 122 294 133 283 b 271 310 247 283 271 293 l 271 319 b 275 343 271 322 271 328 z "},"ª":{"ha":453,"x_min":0,"x_max":0,"o":"m 494 449 b 660 786 536 515 660 690 b 535 872 660 868 563 872 b 386 803 435 872 386 824 b 396 793 386 796 390 793 b 418 799 404 793 414 799 b 472 808 425 801 453 808 b 549 768 542 808 549 781 b 533 750 549 758 546 750 l 531 750 b 222 528 281 743 222 589 b 292 451 222 514 231 451 b 419 499 365 451 397 499 b 478 439 424 499 447 439 b 494 449 482 439 488 440 z m 415 340 b 468 407 450 340 468 394 b 458 417 468 415 463 417 b 367 414 439 417 404 414 b 153 417 293 414 203 417 b 100 349 119 417 100 360 b 110 339 100 342 106 339 b 268 344 138 339 201 344 b 415 340 322 344 375 343 z m 519 672 b 363 536 519 643 438 536 b 332 569 354 536 332 536 b 481 690 332 599 372 690 b 519 672 492 690 519 685 z "},"º":{"ha":453,"x_min":0,"x_max":0,"o":"m 364 457 b 647 669 554 457 647 669 b 717 761 688 688 717 732 b 710 781 717 776 713 781 b 674 769 700 781 696 769 b 649 782 651 769 649 776 b 660 826 649 794 660 797 b 567 894 660 882 586 894 b 246 586 388 894 246 714 b 364 457 246 467 344 457 z m 525 650 b 404 525 525 611 482 525 b 347 583 351 525 347 579 b 529 839 347 669 436 839 b 565 806 536 839 565 838 b 488 724 565 742 521 757 b 461 657 474 707 461 678 b 465 647 461 653 463 647 b 475 650 468 647 471 647 b 513 658 475 650 497 658 b 525 650 519 658 525 657 z m 415 340 b 468 407 450 340 468 394 b 458 417 468 415 463 417 b 367 414 439 417 404 414 b 153 417 293 414 203 417 b 100 349 119 417 100 360 b 110 339 100 342 106 339 b 268 344 138 339 201 344 b 415 340 322 344 375 343 z "},"ø":{"ha":592,"x_min":0,"x_max":0,"o":"m 224 -43 b 611 246 485 -43 611 246 b 707 374 667 271 707 331 b 696 397 707 393 701 397 b 647 383 685 397 678 383 b 613 400 618 383 613 393 b 629 460 613 417 628 422 l 825 660 b 835 676 832 667 835 672 b 796 690 835 690 810 690 b 692 658 779 690 719 689 b 575 536 665 629 624 586 b 503 554 546 550 514 554 b 61 132 257 554 61 307 b 82 36 61 92 69 60 b -22 -67 29 -15 -15 -61 b -31 -83 -28 -74 -31 -79 b 4 -99 -31 -94 -14 -99 l 6 -99 b 113 -67 15 -99 83 -97 l 150 -28 b 224 -43 182 -42 211 -43 z m 494 454 b 201 156 401 358 294 250 b 450 479 218 279 331 479 b 494 454 456 479 483 476 z m 443 221 b 278 49 443 167 385 49 b 236 58 260 49 246 53 l 401 228 b 426 232 410 231 418 232 b 443 221 436 232 443 229 z "},"õ":{"ha":592,"x_min":0,"x_max":0,"o":"m 488 594 b 692 686 638 594 692 664 b 685 694 692 693 688 694 l 682 694 b 592 686 647 689 618 686 b 469 708 511 686 469 708 b 389 624 446 708 389 647 b 488 594 389 608 406 594 z m 224 -43 b 611 246 485 -43 611 246 b 707 374 667 271 707 331 b 696 397 707 393 701 397 b 647 383 685 397 678 383 b 613 400 618 383 613 393 b 629 461 613 417 629 422 b 503 554 629 538 526 554 b 61 132 257 554 61 307 b 224 -43 61 -33 196 -43 z m 443 221 b 278 49 443 167 385 49 b 200 129 206 49 200 121 b 450 479 200 247 322 479 b 500 432 458 479 500 476 b 394 321 500 346 438 367 b 356 228 372 299 356 257 b 364 215 356 224 357 215 b 375 219 367 215 369 217 b 426 232 375 219 406 232 b 443 221 436 232 443 229 z "},"p":{"ha":567,"x_min":0,"x_max":0,"o":"m 139 -51 b 643 439 417 -51 643 214 b 571 535 643 515 600 535 b 385 467 471 535 410 467 b 374 478 376 467 374 471 b 450 619 374 508 450 600 b 421 638 450 635 429 638 b 304 579 322 638 304 579 b -419 -728 131 247 -419 -618 b -339 -824 -419 -776 -369 -824 b -317 -807 -329 -824 -321 -818 b 67 -64 -260 -646 7 -140 b 139 -51 76 -51 133 -51 z m 497 367 b 219 40 497 257 342 40 b 151 88 183 40 151 61 b 468 410 151 106 324 410 b 497 367 483 410 497 393 z "},"¶":{"ha":494,"x_min":0,"x_max":0,"o":"m 853 939 b 858 954 857 946 858 950 b 835 965 858 964 846 965 b 714 940 746 965 714 940 b 561 954 681 950 564 954 b 90 624 182 954 90 711 b 261 450 90 465 261 494 b 11 19 261 400 94 149 b 1 -3 11 19 1 7 b 25 -17 1 -10 7 -17 b 133 32 47 -17 103 -15 b 604 839 133 32 550 785 b 672 864 624 858 658 864 b 693 847 679 864 693 861 b 689 835 693 843 692 840 b 214 25 689 835 247 75 b 204 4 214 25 204 14 b 228 -8 204 -3 210 -8 b 339 44 269 -8 318 1 b 853 939 394 161 665 650 z "},"(":{"ha":356,"x_min":0,"x_max":0,"o":"m 333 481 b 757 999 493 790 615 899 b 768 1013 765 1004 768 1008 b 718 1026 768 1026 718 1026 b 92 79 500 1026 92 500 b 163 -81 92 -4 92 -81 b 185 -61 163 -81 185 -79 b 183 -19 185 -44 183 -32 b 333 481 183 54 200 221 z "},")":{"ha":371,"x_min":0,"x_max":0,"o":"m 304 464 b -118 -53 146 156 24 47 b -129 -67 -126 -58 -129 -62 b -79 -81 -129 -81 -79 -81 b 547 867 139 -81 547 454 b 476 1026 547 950 547 1026 b 453 1007 476 1026 453 1025 b 454 964 453 990 454 976 b 304 464 454 890 438 724 z "},"%":{"ha":801,"x_min":0,"x_max":0,"o":"m 557 -10 b 869 332 715 -10 869 190 b 764 429 869 393 831 429 b 453 88 615 429 453 240 b 557 -10 453 26 492 -10 z m 781 336 b 583 36 781 224 664 36 b 544 86 549 36 544 67 b 742 388 544 199 660 388 b 781 336 776 388 781 357 z m 157 24 b 1004 896 289 165 1004 896 b 1047 936 1004 896 1038 926 b 1057 953 1054 943 1057 949 b 1019 968 1057 963 1042 968 b 936 935 1013 968 965 967 b 89 64 826 818 89 64 b 46 24 89 64 56 33 b 38 7 40 17 38 11 b 75 -8 38 -8 63 -8 b 157 24 86 -8 129 -7 z m 339 539 b 651 881 497 539 651 739 b 546 978 651 942 613 978 b 235 636 397 978 235 789 b 339 539 235 575 274 539 z m 563 885 b 365 585 563 772 446 585 b 326 635 331 585 326 615 b 524 936 326 747 442 936 b 563 885 558 936 563 906 z "},".":{"ha":274,"x_min":0,"x_max":0,"o":"m 140 142 b 19 46 72 142 19 88 b 83 -4 19 15 47 -4 b 207 93 156 -4 207 47 b 140 142 207 124 178 142 z "},"·":{"ha":274,"x_min":0,"x_max":0,"o":"m 218 336 b 97 240 150 336 97 282 b 161 190 97 210 125 190 b 285 288 233 190 285 242 b 218 336 285 318 256 336 z "},"‰":{"ha":1214,"x_min":0,"x_max":0,"o":"m 557 -10 b 869 332 715 -10 869 190 b 764 429 869 393 831 429 b 453 88 615 429 453 240 b 557 -10 453 26 492 -10 z m 781 336 b 583 36 781 224 664 36 b 544 86 549 36 544 67 b 742 388 544 199 660 388 b 781 336 776 388 781 357 z m 157 24 b 1004 896 289 165 1004 896 b 1047 936 1004 896 1038 926 b 1057 953 1054 943 1057 949 b 1019 968 1057 963 1042 968 b 936 935 1013 968 965 967 b 89 64 826 818 89 64 b 46 24 89 64 56 33 b 38 7 40 17 38 11 b 75 -8 38 -8 63 -8 b 157 24 86 -8 129 -7 z m 339 539 b 651 881 497 539 651 739 b 546 978 651 942 613 978 b 235 636 397 978 235 789 b 339 539 235 575 274 539 z m 563 885 b 365 585 563 772 446 585 b 326 635 331 585 326 615 b 524 936 326 747 442 936 b 563 885 558 936 563 906 z m 957 -10 b 1269 332 1115 -10 1269 190 b 1164 429 1269 393 1231 429 b 853 88 1015 429 853 240 b 957 -10 853 26 892 -10 z m 1181 336 b 983 36 1181 224 1064 36 b 944 86 949 36 944 67 b 1142 388 944 199 1060 388 b 1181 336 1176 388 1181 357 z "},"π":{"ha":575,"x_min":0,"x_max":0,"o":"m 381 -22 b 558 390 381 113 558 390 b 672 507 639 414 672 488 b 661 521 672 518 667 521 b 569 511 647 521 619 511 b 308 526 493 511 411 526 b 160 428 231 526 160 438 b 171 415 160 417 171 415 b 219 421 181 415 203 421 b 236 413 229 421 236 418 b -39 -10 236 361 3 21 b -46 -24 -43 -15 -46 -19 b -14 -36 -46 -31 -37 -36 b 124 28 22 -36 90 -26 b 328 381 124 28 233 286 b 408 410 349 401 376 410 b 442 386 426 410 442 404 b 267 36 442 321 267 115 b 369 -46 267 11 317 -46 b 381 -25 369 -46 381 -43 z "},"+":{"ha":747,"x_min":0,"x_max":0,"o":"m 571 451 b 792 450 613 451 674 450 b 893 540 857 450 893 526 b 874 554 893 551 882 554 b 726 549 865 554 817 549 b 625 550 688 549 656 550 b 747 757 647 590 699 681 b 757 778 747 757 757 768 b 717 793 757 792 731 793 b 621 746 686 793 643 783 b 511 551 560 642 531 588 b 288 553 451 551 375 553 b 186 463 222 553 186 476 b 206 449 186 451 197 449 b 381 453 247 449 290 453 l 456 453 b 332 246 419 390 369 304 b 322 225 332 246 322 235 b 361 210 322 210 347 210 b 458 257 392 210 436 219 b 568 451 501 331 540 400 l 571 451 z "},"±":{"ha":786,"x_min":0,"x_max":0,"o":"m 686 206 b 788 296 751 206 788 279 b 768 308 788 307 776 308 b 590 306 731 308 665 306 b 182 308 451 306 279 308 b 81 218 117 308 81 232 b 99 204 81 207 92 204 b 404 211 153 204 276 211 b 686 206 506 211 608 210 z m 833 521 b 935 611 899 521 935 597 b 915 625 935 622 924 625 b 768 619 907 625 858 619 b 667 621 729 619 697 621 b 747 757 689 661 699 681 b 757 778 747 757 757 768 b 717 793 757 792 731 793 b 621 746 686 793 643 783 b 553 622 560 642 572 658 b 329 624 493 622 417 624 b 228 533 264 624 228 547 b 247 519 228 522 239 519 b 422 524 289 519 332 524 l 497 524 b 415 389 461 461 453 447 b 406 368 415 389 406 378 b 444 353 406 353 431 353 b 542 400 475 353 519 363 b 610 522 585 474 582 471 z "},"q":{"ha":588,"x_min":0,"x_max":0,"o":"m 526 -93 b 457 -54 526 -60 486 -54 b 415 -57 439 -54 428 -57 b 396 -42 400 -57 396 -50 b 401 -24 396 -33 401 -24 b 647 378 493 171 647 357 b 579 401 647 397 599 401 b 514 382 526 401 514 382 b 240 143 399 200 289 143 b 211 178 218 143 211 158 b 510 472 211 303 353 472 b 697 429 683 472 674 429 b 719 468 717 429 719 460 b 563 563 719 540 610 563 b 44 75 226 563 44 250 b 101 -10 44 35 57 -10 b 344 108 222 -10 308 108 b 356 97 349 108 356 107 b 354 89 356 94 356 92 b 236 -97 354 89 275 -76 b 69 -244 158 -142 69 -214 b 75 -254 69 -249 71 -251 b 115 -318 75 -254 115 -278 b -146 -796 115 -365 -146 -708 b -62 -890 -146 -844 -94 -890 b -39 -874 -51 -890 -43 -886 b 247 -306 17 -714 215 -356 b 526 -93 360 -129 526 -132 z "},"?":{"ha":540,"x_min":0,"x_max":0,"o":"m 793 772 b 636 904 793 882 694 904 b 499 882 525 904 499 882 b 483 879 493 881 488 879 b 408 906 467 879 436 906 b 247 701 365 906 247 710 b 271 688 247 694 247 688 b 335 718 285 688 303 689 b 525 813 335 718 426 813 b 617 751 558 813 617 801 b 154 258 617 539 264 536 b 197 236 154 240 165 236 b 281 268 224 236 269 240 b 793 772 381 517 793 492 z m 213 100 b 88 4 213 39 135 4 b 25 53 51 4 26 22 l 25 54 b 149 149 25 114 104 149 b 213 100 185 149 211 131 z "},"¿":{"ha":610,"x_min":0,"x_max":0,"o":"m 531 531 b 596 482 532 501 560 482 b 718 579 643 482 718 518 b 654 628 718 608 690 628 b 531 531 608 628 531 592 z m -50 -142 b 107 -274 -50 -251 49 -274 b 258 -247 238 -274 233 -247 b 335 -275 278 -247 288 -275 b 496 -71 378 -275 496 -79 b 472 -56 496 -64 494 -56 b 408 -87 458 -56 440 -58 b 218 -181 408 -87 317 -181 b 125 -119 185 -181 125 -171 b 589 372 125 92 479 94 b 546 396 588 396 563 396 b 463 363 519 396 474 392 b -50 -142 363 114 -50 139 z "},"\"":{"ha":428,"x_min":0,"x_max":0,"o":"m 579 969 b 465 874 517 969 481 925 b 463 865 465 871 464 868 b 429 728 453 835 429 760 b 436 713 429 718 431 713 b 626 915 478 713 621 864 l 626 922 b 579 969 626 950 611 969 z m 783 969 b 669 874 721 969 685 925 b 667 865 669 871 668 868 b 633 728 657 835 633 760 b 640 713 633 718 635 713 b 831 915 682 713 825 864 l 831 922 b 783 969 831 950 815 969 z "},"„":{"ha":493,"x_min":0,"x_max":0,"o":"m 267 89 b 160 -99 253 63 160 -99 b 157 -107 158 -101 157 -104 b 172 -118 157 -112 161 -118 b 417 99 224 -118 417 40 b 361 142 417 136 386 142 b 267 89 333 142 293 135 z m 67 89 b -42 -99 51 63 -42 -99 b -44 -107 -43 -101 -44 -104 b -29 -118 -44 -112 -40 -118 b 217 99 24 -118 217 40 b 160 142 217 136 186 142 b 67 89 132 142 93 135 z "},"“":{"ha":408,"x_min":0,"x_max":0,"o":"m 483 900 b 497 939 490 911 497 925 b 449 972 497 957 486 972 b 336 814 371 972 336 917 b 354 719 336 763 347 735 b 367 710 358 713 363 710 b 378 718 371 710 375 714 b 483 900 378 718 469 874 z m 678 900 b 692 939 685 911 692 925 b 643 972 692 957 681 972 b 531 814 565 972 531 917 b 549 719 531 763 542 735 b 561 710 553 713 557 710 b 572 718 565 710 569 714 b 678 900 572 718 664 874 z "},"”":{"ha":483,"x_min":0,"x_max":0,"o":"m 736 917 b 629 729 722 890 629 729 b 626 721 628 726 626 724 b 642 710 626 715 631 710 b 886 926 693 710 886 868 b 831 969 886 964 856 969 b 736 917 803 969 763 963 z m 536 917 b 428 729 521 890 428 729 b 425 721 426 726 425 724 b 440 710 425 715 429 710 b 686 926 493 710 686 868 b 629 969 686 964 656 969 b 536 917 601 969 563 963 z "},"‘":{"ha":214,"x_min":0,"x_max":0,"o":"m 483 900 b 497 939 490 911 497 925 b 449 972 497 957 486 972 b 336 814 371 972 336 917 b 354 719 336 763 347 735 b 367 710 358 713 363 710 b 378 718 371 710 375 714 b 483 900 378 718 469 874 z "},"’":{"ha":283,"x_min":0,"x_max":0,"o":"m 536 917 b 428 729 521 890 428 729 b 425 721 426 726 425 724 b 440 710 425 715 429 710 b 686 926 493 710 686 868 b 629 969 686 964 656 969 b 536 917 601 969 563 963 z "},"‚":{"ha":293,"x_min":0,"x_max":0,"o":"m 67 89 b -42 -99 51 63 -42 -99 b -44 -107 -43 -101 -44 -104 b -29 -118 -44 -112 -40 -118 b 217 99 24 -118 217 40 b 160 142 217 136 186 142 b 67 89 132 142 93 135 z "},"'":{"ha":219,"x_min":0,"x_max":0,"o":"m 579 969 b 465 874 517 969 481 925 b 463 865 465 871 464 868 b 429 728 453 835 429 760 b 436 713 429 718 431 713 b 626 915 478 713 621 864 l 626 922 b 579 969 626 950 611 969 z "},"r":{"ha":557,"x_min":0,"x_max":0,"o":"m 511 186 b 696 500 586 350 696 500 b 710 522 707 515 710 522 b 640 547 710 543 674 547 b 538 489 568 547 546 493 b 388 394 461 447 410 411 b 357 378 379 389 369 378 b 347 388 347 378 347 388 b 411 510 347 417 411 481 b 375 526 411 521 393 526 b 304 511 335 526 304 511 b -14 -28 240 488 -14 15 b 24 -44 -14 -33 -8 -44 b 121 -3 40 -44 97 -44 b 447 333 182 107 331 333 b 461 315 451 333 461 332 b 444 258 461 315 444 286 b 499 176 444 229 460 176 b 511 186 503 176 507 178 z "},"®":{"ha":472,"x_min":0,"x_max":0,"o":"m 276 221 b 600 521 460 221 600 394 b 446 649 600 593 554 649 b 121 353 257 649 121 479 b 276 221 121 279 168 221 z m 432 611 b 538 510 506 611 538 567 b 296 264 538 407 436 264 b 185 363 218 264 185 307 b 432 611 185 465 294 611 z m 285 340 b 390 533 292 363 363 499 b 413 543 393 538 403 543 b 446 518 432 543 446 538 b 375 467 446 492 417 467 b 357 439 364 467 357 447 b 361 436 357 438 357 436 l 365 436 b 382 419 374 436 382 435 b 354 338 382 401 354 358 b 382 326 354 332 360 326 b 408 332 392 326 408 328 l 408 342 b 431 422 408 372 431 407 b 406 450 431 436 406 443 b 458 469 406 460 433 456 b 497 521 478 479 497 500 b 401 568 497 565 449 568 b 342 558 357 568 342 563 l 342 556 b 333 526 342 550 340 542 b 224 329 314 479 224 338 l 224 328 b 233 324 224 326 224 324 b 285 340 249 324 281 328 z "},"˚":{"ha":556,"x_min":0,"x_max":0,"o":"m 611 688 b 553 640 611 667 588 640 b 522 664 536 640 522 650 b 581 710 522 685 550 710 b 611 688 599 710 611 701 z m 465 649 b 536 596 465 615 497 596 b 669 701 608 596 669 653 b 597 756 669 735 638 756 b 465 649 538 756 465 710 z "},"s":{"ha":481,"x_min":0,"x_max":0,"o":"m 411 144 b 272 354 411 244 272 275 b 408 454 272 426 365 454 b 431 436 428 454 431 444 b 417 374 431 425 417 396 b 479 303 417 336 444 303 b 496 315 485 303 492 306 b 658 554 538 418 640 539 b 660 561 660 557 660 558 b 589 582 660 579 629 582 b 482 524 500 582 492 524 b 449 525 471 525 460 525 b 131 336 288 525 131 440 b 264 142 131 250 264 226 b -54 -51 264 46 68 -51 b -69 -65 -54 -51 -69 -53 b 19 -104 -69 -65 -71 -104 b 411 144 211 -104 411 18 z "},"š":{"ha":481,"x_min":0,"x_max":0,"o":"m 411 144 b 272 354 411 244 272 275 b 408 454 272 426 365 454 b 431 436 428 454 431 444 b 417 374 431 425 417 396 b 479 303 417 336 444 303 b 496 315 485 303 492 306 b 658 554 538 418 640 539 b 660 561 660 557 660 558 b 589 582 660 579 629 582 b 482 524 500 582 492 524 b 449 525 471 525 460 525 b 131 336 288 525 131 440 b 264 142 131 250 264 226 b -54 -51 264 46 68 -51 b -69 -65 -54 -51 -69 -53 b 19 -104 -69 -65 -71 -104 b 411 144 211 -104 411 18 z m 444 714 b 388 771 431 743 406 771 b 375 754 376 771 375 757 b 347 647 374 743 357 675 b 343 629 344 640 343 635 b 358 613 343 619 349 614 b 424 635 371 613 401 619 b 436 639 428 638 432 639 b 451 633 444 639 451 633 b 497 615 464 622 481 615 b 536 647 517 615 525 636 b 629 750 575 696 629 742 b 592 761 629 756 626 761 b 471 711 567 761 508 736 b 456 708 471 711 463 708 b 444 714 451 708 447 710 z "},"§":{"ha":715,"x_min":0,"x_max":0,"o":"m 149 -6 b 533 188 321 -6 533 94 b 488 281 533 233 488 246 b 836 528 488 332 836 358 b 646 772 836 660 646 675 b 906 888 646 821 751 888 l 919 888 b 939 903 939 888 939 897 b 828 946 939 943 846 946 b 463 779 653 946 463 872 b 529 683 463 718 529 710 b 504 663 529 675 521 668 l 488 658 b 178 429 392 632 178 572 b 354 210 178 343 354 301 b 71 51 354 129 218 51 b 46 35 60 51 46 50 b 149 -6 46 15 85 -6 z m 668 522 b 438 374 668 451 551 374 b 343 454 374 374 343 433 b 571 604 343 532 496 604 b 668 522 611 604 668 574 z "},";":{"ha":331,"x_min":0,"x_max":0,"o":"m 226 90 b 160 142 226 122 201 142 b 40 46 93 142 40 86 b 82 -3 40 22 51 4 b 90 -15 85 -3 90 -7 b 29 -82 90 -28 85 -50 b 26 -89 29 -82 26 -86 b 49 -99 26 -93 31 -99 b 226 90 111 -99 226 -18 z m 367 504 b 247 408 300 504 247 450 b 310 358 247 378 275 358 b 433 456 382 358 433 410 b 367 504 433 486 404 504 z "},"/":{"ha":528,"x_min":0,"x_max":0,"o":"m 93 -36 b 1081 978 413 308 750 638 b 1090 996 1088 986 1090 992 b 1049 1013 1090 1013 1064 1013 b 932 976 1032 1013 964 1010 b -57 -36 776 811 -32 -17 b -67 -56 -64 -44 -67 -50 b -26 -72 -67 -72 -37 -72 b 93 -36 -17 -72 60 -71 z "}," ":{"ha":250,"x_min":0,"x_max":0,"o":""},"£":{"ha":775,"x_min":0,"x_max":0,"o":"m 519 781 b 389 533 494 725 446 635 b 257 535 347 535 303 535 b 179 464 204 535 179 476 b 196 454 179 456 189 454 l 203 454 b 344 457 240 457 293 457 b 72 -25 217 236 72 -3 l 72 -29 b 113 -47 72 -36 76 -47 b 235 -7 135 -47 190 -46 b 263 4 235 -7 243 4 b 456 0 283 4 392 0 b 644 3 526 0 600 1 b 713 26 668 4 696 6 b 832 264 754 78 832 219 b 800 286 832 283 814 286 b 778 274 779 286 778 274 b 449 78 661 89 490 78 b 353 128 407 78 353 85 b 475 413 353 211 450 365 b 497 456 482 426 490 440 l 514 456 b 669 454 540 456 572 454 b 749 524 724 454 749 513 b 732 535 749 533 739 535 l 725 535 b 593 531 676 532 628 531 l 539 531 b 751 899 618 678 713 843 b 763 921 751 899 763 910 b 690 947 763 933 749 947 b 549 913 567 947 549 925 l 549 901 b 519 781 549 881 547 846 z "},"t":{"ha":292,"x_min":0,"x_max":0,"o":"m 628 1097 b 315 851 465 872 364 907 b 297 814 304 839 297 825 b 315 797 297 804 303 797 l 361 797 b 436 769 413 797 436 794 b -18 -24 436 713 -18 68 b 85 -132 -18 -74 50 -132 b 104 -118 94 -132 101 -128 b 547 710 167 126 513 661 b 707 801 588 768 583 801 b 839 883 819 801 839 874 b 825 890 839 889 835 890 b 757 888 813 890 789 888 b 693 889 710 888 693 889 b 651 911 657 889 651 903 b 776 1126 651 954 776 1100 b 747 1144 776 1142 756 1144 b 628 1097 714 1144 661 1143 z "},"þ":{"ha":564,"x_min":0,"x_max":0,"o":"m 375 488 b 815 1175 572 868 815 1139 b 774 1197 815 1196 781 1197 b 618 1136 661 1197 632 1161 b 332 636 613 1125 472 892 b -415 -711 151 310 -415 -601 b -335 -806 -415 -760 -365 -806 b -312 -789 -325 -806 -317 -800 b 68 -50 -256 -629 10 -125 b 140 -37 79 -37 129 -37 l 142 -37 b 643 451 417 -37 643 226 b 571 546 643 528 600 546 b 385 478 471 546 411 478 b 375 488 378 478 375 481 z m 497 379 b 222 54 497 269 343 54 b 153 101 185 54 153 75 b 469 422 153 119 325 422 b 497 379 483 422 497 406 z "},"¾":{"ha":1140,"x_min":0,"x_max":0,"o":"m 1235 560 b 1185 574 1235 568 1231 574 b 1086 557 1160 574 1113 571 b 685 181 994 510 685 257 b 878 144 685 150 783 144 l 897 144 b 813 11 833 40 813 21 b 871 -7 813 3 821 -7 b 935 17 913 -7 926 -3 l 947 53 b 994 147 954 69 971 104 l 1029 147 b 1081 197 1063 147 1081 188 b 1072 208 1081 208 1078 208 b 1026 206 1068 207 1051 206 b 1224 539 1100 339 1200 508 b 1235 560 1224 539 1235 551 z m 488 528 b 317 335 488 428 390 335 b 263 393 276 335 263 361 b 294 504 263 433 283 483 l 294 506 b 278 513 294 513 278 513 b 144 325 225 513 146 346 l 144 324 b 317 286 144 306 169 286 b 586 518 439 286 586 383 b 528 614 586 600 528 599 b 717 789 529 639 717 651 b 625 875 717 822 685 875 b 540 861 554 875 540 861 b 475 879 528 872 499 879 b 375 743 446 876 376 751 l 375 742 b 389 733 375 735 382 733 b 422 747 394 733 413 733 b 567 817 422 747 478 817 b 617 771 592 817 617 804 b 399 649 613 726 550 649 b 356 604 381 649 356 625 b 365 596 356 601 357 596 b 488 528 407 596 488 588 z m 379 22 b 1169 833 635 297 906 561 b 1178 847 1175 840 1178 844 b 1144 861 1178 861 1156 861 b 1050 832 1131 861 1076 858 b 260 22 924 701 279 38 b 251 7 254 15 251 11 b 283 -7 251 -7 275 -7 b 379 22 292 -7 353 -6 z m 1061 435 b 933 204 1008 335 968 263 b 817 235 874 207 817 214 b 1054 457 817 283 999 457 b 1064 446 1063 457 1064 451 b 1061 435 1064 440 1061 435 z "},"³":{"ha":510,"x_min":0,"x_max":0,"o":"m 488 528 b 317 335 488 428 390 335 b 263 393 276 335 263 361 b 294 504 263 433 283 483 l 294 506 b 278 513 294 513 278 513 b 144 325 225 513 146 346 l 144 324 b 317 286 144 306 169 286 b 586 518 439 286 586 383 b 528 614 586 600 528 599 b 717 789 529 639 717 651 b 625 875 717 822 685 875 b 540 861 554 875 540 861 b 475 879 528 872 499 879 b 375 743 446 876 376 751 l 375 742 b 389 733 375 735 382 733 b 422 747 394 733 413 733 b 567 817 422 747 478 817 b 617 771 592 817 617 804 b 399 649 613 726 550 649 b 356 604 381 649 356 625 b 365 596 356 601 357 596 b 488 528 407 596 488 588 z "},"˜":{"ha":665,"x_min":0,"x_max":0,"o":"m 501 594 b 706 686 651 594 706 664 b 699 694 706 693 701 694 l 696 694 b 606 686 661 689 632 686 b 483 708 525 686 483 708 b 403 624 460 708 403 647 b 501 594 403 608 419 594 z "},"™":{"ha":664,"x_min":0,"x_max":0,"o":"m 483 299 b 622 449 511 346 600 449 b 628 444 626 449 628 447 b 618 425 628 440 622 431 b 533 263 597 393 533 296 b 582 247 533 253 550 247 b 593 254 590 247 593 254 b 743 539 593 313 743 536 b 744 542 744 540 744 542 b 725 550 744 547 739 550 b 664 544 685 550 667 547 b 522 403 618 508 546 403 b 518 410 519 403 518 406 b 551 538 518 436 551 524 b 518 550 551 550 518 550 b 450 533 471 550 450 536 l 450 528 b 440 492 450 521 449 510 b 299 246 379 369 299 257 l 299 244 b 322 238 299 238 318 238 b 342 243 326 238 335 239 b 440 419 360 256 376 315 b 469 454 440 419 458 454 b 474 447 472 454 474 451 b 432 306 474 424 432 342 b 464 288 432 292 450 288 b 483 299 469 288 479 290 z m 438 543 b 431 550 438 546 436 550 b 389 542 410 550 389 542 l 281 542 b 247 550 269 550 247 550 b 186 460 233 550 186 460 b 185 456 185 458 185 457 b 189 451 185 451 189 451 b 210 460 206 451 210 460 b 279 513 251 506 272 513 b 286 507 285 513 286 510 b 283 496 286 503 285 499 b 139 250 219 372 139 261 l 139 249 b 172 242 139 242 165 242 b 200 250 181 242 192 244 b 272 382 218 265 236 319 l 342 499 b 363 514 342 499 350 514 b 374 492 369 514 374 506 b 368 457 374 483 372 471 l 368 453 b 376 447 368 449 371 447 b 392 457 379 447 386 449 b 438 543 404 474 438 531 z "},"²":{"ha":510,"x_min":0,"x_max":0,"o":"m 294 374 b 721 804 294 501 721 660 b 626 875 721 869 626 875 b 522 863 556 875 522 863 b 453 882 506 875 478 882 b 329 721 419 879 331 732 b 344 713 329 715 336 713 b 385 728 353 713 364 713 b 557 813 385 728 457 813 b 597 779 563 813 597 811 b 119 310 597 679 181 522 b 118 304 118 307 118 306 b 153 292 118 294 128 292 b 317 296 182 292 238 296 b 461 292 381 296 378 292 b 588 475 496 292 585 454 b 575 483 588 481 583 483 b 539 469 567 483 553 483 b 340 349 539 469 447 349 b 294 374 324 349 294 351 z "},"u":{"ha":617,"x_min":0,"x_max":0,"o":"m 592 460 b 250 136 439 256 335 136 b 218 175 231 136 218 150 b 417 560 218 296 417 540 b 385 576 417 572 400 576 b 338 571 371 576 351 575 b 42 46 222 542 42 151 b 114 -28 42 -14 86 -28 b 379 125 196 -28 258 8 b 400 135 379 125 388 135 b 410 125 400 135 410 135 b 404 72 410 118 404 93 b 460 -17 404 28 418 -17 b 478 0 460 -17 472 -18 b 740 482 522 146 740 482 b 744 493 743 486 744 490 b 703 510 744 508 717 510 b 592 460 658 510 618 497 z "},"ú":{"ha":617,"x_min":0,"x_max":0,"o":"m 592 460 b 703 510 618 497 658 510 b 744 493 717 510 744 508 b 740 482 744 490 743 486 b 478 0 740 482 522 146 b 460 -17 472 -18 460 -17 b 404 72 418 -17 404 28 b 410 125 404 93 410 118 b 400 135 410 135 400 135 b 379 125 388 135 379 125 b 114 -28 258 8 196 -28 b 42 46 86 -28 42 -14 b 338 571 42 151 222 542 b 385 576 351 575 371 576 b 417 560 400 576 417 572 b 218 175 417 540 218 296 b 250 136 218 150 231 136 b 592 460 335 136 439 256 z m 718 700 b 649 765 718 733 665 765 b 613 731 633 765 628 751 b 513 621 571 679 513 631 b 536 610 513 618 513 610 b 718 700 576 610 718 668 z "},"û":{"ha":617,"x_min":0,"x_max":0,"o":"m 592 460 b 703 510 618 497 658 510 b 744 493 717 510 744 508 b 740 482 744 490 743 486 b 478 0 740 482 522 146 b 460 -17 472 -18 460 -17 b 404 72 418 -17 404 28 b 410 125 404 93 410 118 b 400 135 410 135 400 135 b 379 125 388 135 379 125 b 114 -28 258 8 196 -28 b 42 46 86 -28 42 -14 b 338 571 42 151 222 542 b 385 576 351 575 371 576 b 417 560 400 576 417 572 b 218 175 417 540 218 296 b 250 136 218 150 231 136 b 592 460 335 136 439 256 z m 588 658 b 644 601 603 629 626 601 b 657 619 657 601 657 615 b 685 726 660 631 675 697 b 689 744 688 735 689 740 b 675 760 689 753 685 758 b 608 738 651 760 626 749 b 596 733 604 735 600 733 b 581 739 588 733 581 739 b 535 758 569 750 553 758 b 496 726 515 758 507 738 b 403 622 457 676 403 632 b 440 611 403 617 406 611 b 561 661 465 611 524 636 b 575 667 565 664 571 667 b 588 658 581 667 585 664 z "},"ü":{"ha":617,"x_min":0,"x_max":0,"o":"m 592 460 b 250 136 439 256 335 136 b 218 175 231 136 218 150 b 417 560 218 296 417 540 b 385 576 417 572 400 576 b 338 571 371 576 351 575 b 42 46 222 542 42 151 b 114 -28 42 -14 86 -28 b 379 125 196 -28 258 8 b 400 135 379 125 388 135 b 410 125 400 135 410 135 b 404 72 410 118 404 93 b 460 -17 404 28 418 -17 b 478 0 460 -17 472 -18 b 740 482 522 146 740 482 b 744 493 743 486 744 490 b 703 510 744 508 717 510 b 592 460 658 510 618 497 z m 539 694 b 488 733 539 718 517 733 b 390 657 436 733 390 693 b 442 617 390 633 411 617 b 539 694 496 617 539 660 z m 796 694 b 744 733 796 718 774 733 b 647 657 693 733 647 693 b 699 617 647 633 669 617 b 796 694 754 617 796 660 z "},"ù":{"ha":617,"x_min":0,"x_max":0,"o":"m 592 460 b 250 136 439 256 335 136 b 218 175 231 136 218 150 b 417 560 218 296 417 540 b 385 576 417 572 400 576 b 338 571 371 576 351 575 b 42 46 222 542 42 151 b 114 -28 42 -14 86 -28 b 379 125 196 -28 258 8 b 400 135 379 125 388 135 b 410 125 400 135 410 135 b 404 72 410 118 404 93 b 460 -17 404 28 418 -17 b 478 0 460 -17 472 -18 b 740 482 522 146 740 482 b 744 493 743 486 744 490 b 703 510 744 508 717 510 b 592 460 658 510 618 497 z m 517 769 b 440 714 501 769 440 749 b 606 599 440 682 567 606 l 615 599 b 629 607 629 599 629 603 b 549 731 631 615 581 672 b 517 769 536 753 533 769 z "},"_":{"ha":747,"x_min":0,"x_max":0,"o":"m 611 -78 b 692 -14 676 -78 692 -31 b 672 -1 692 -3 681 -1 b 494 -4 635 -1 569 -4 b 86 -1 356 -4 183 -1 b 6 -65 21 -1 6 -51 b 24 -79 6 -76 17 -79 b 329 -72 78 -79 201 -72 b 611 -78 431 -72 533 -74 z "},"v":{"ha":544,"x_min":0,"x_max":0,"o":"m 596 347 b 617 419 611 375 617 400 b 628 432 617 426 628 432 b 732 568 715 465 732 568 b 721 582 732 581 725 582 b 594 550 707 582 679 550 b 519 563 539 550 532 563 b 450 460 501 563 450 507 b 486 410 450 424 486 410 b 250 101 486 322 338 101 b 222 153 231 101 222 122 b 318 488 222 249 297 449 b 321 496 319 490 321 493 b 297 507 321 507 304 507 b 203 464 218 507 200 463 b 58 1 203 464 58 192 b 110 -61 58 -18 67 -61 b 596 347 238 -61 517 193 z "},"w":{"ha":850,"x_min":0,"x_max":0,"o":"m 467 -33 b 890 333 586 -33 819 197 b 911 406 906 361 911 386 b 922 418 911 413 922 418 b 1026 554 1021 460 1026 554 b 1014 568 1026 561 1025 568 b 889 536 1001 568 972 536 b 814 549 833 536 826 549 b 744 446 796 549 744 493 b 781 396 744 410 781 396 b 572 106 781 317 656 106 b 540 160 549 106 540 128 b 614 421 540 240 594 385 b 617 429 615 424 617 426 b 593 440 617 439 600 440 b 488 397 514 440 486 396 b 267 151 488 397 342 151 b 246 192 251 151 246 167 b 349 540 246 283 326 500 b 351 549 350 543 351 546 b 328 560 351 560 335 560 b 226 517 249 560 225 515 b 64 -4 226 517 64 210 b 115 -67 64 -24 72 -67 b 392 143 219 -67 347 143 b 401 119 399 143 401 133 b 399 57 401 103 399 79 b 467 -33 399 13 408 -33 z "},"x":{"ha":564,"x_min":0,"x_max":0,"o":"m 794 554 b 739 574 794 572 750 574 b 589 529 614 574 589 531 b 429 407 483 414 446 407 b 403 533 399 407 410 499 b 353 557 397 557 383 557 b 238 503 324 557 238 533 b 275 336 238 483 275 485 b 235 267 275 324 271 294 b -92 -35 168 215 -92 -3 b -37 -54 -92 -35 -94 -54 b 68 -18 -28 -54 40 -53 b 269 192 68 -18 206 192 b 296 25 296 192 296 78 l 296 7 b 422 -44 296 -14 307 -44 b 444 -25 431 -44 444 -39 b 411 231 444 -25 411 63 b 794 554 411 364 794 519 z "},"y":{"ha":596,"x_min":0,"x_max":0,"o":"m 449 3 b 740 515 606 293 740 515 b 744 526 743 519 744 524 b 703 543 744 542 717 543 b 592 493 622 543 597 504 b 244 158 479 306 310 158 b 215 192 224 158 215 167 b 394 511 215 296 394 492 b 353 525 394 525 372 525 b 257 488 329 525 282 513 b 32 64 154 385 32 150 b 94 -6 32 4 67 -6 b 336 128 161 -6 247 51 b 364 142 336 128 349 142 b 375 121 374 142 375 133 b 325 3 375 103 325 3 b -149 -689 221 -208 -43 -689 b -174 -654 -174 -689 -174 -660 b 174 -129 -174 -482 71 -182 b 190 -112 182 -125 190 -121 b 169 -101 190 -106 182 -101 b -346 -767 0 -101 -346 -517 b -287 -871 -346 -839 -321 -871 b 449 3 -69 -871 249 -368 z "},"ý":{"ha":596,"x_min":0,"x_max":0,"o":"m 449 3 b -287 -871 249 -368 -69 -871 b -346 -767 -321 -871 -346 -839 b 169 -101 -346 -517 0 -101 b 190 -112 182 -101 190 -106 b 174 -129 190 -121 182 -125 b -174 -654 71 -182 -174 -482 b -149 -689 -174 -660 -174 -689 b 325 3 -43 -689 221 -208 b 375 121 325 3 375 103 b 364 142 375 133 374 142 b 336 128 349 142 336 128 b 94 -6 247 51 161 -6 b 32 64 67 -6 32 4 b 257 488 32 150 154 385 b 353 525 282 513 329 525 b 394 511 372 525 394 525 b 215 192 394 492 215 296 b 244 158 215 167 224 158 b 592 493 310 158 479 306 b 703 543 597 504 622 543 b 744 526 717 543 744 542 b 740 515 744 524 743 519 b 449 3 740 515 606 293 z m 686 700 b 617 765 686 733 633 765 b 581 731 601 765 596 751 b 481 621 539 679 481 631 b 504 610 481 618 481 610 b 686 700 544 610 686 668 z "},"ÿ":{"ha":596,"x_min":0,"x_max":0,"o":"m 449 3 b 740 515 606 293 740 515 b 744 526 743 519 744 524 b 703 543 744 542 717 543 b 592 493 622 543 597 504 b 244 158 479 306 310 158 b 215 192 224 158 215 167 b 394 511 215 296 394 492 b 353 525 394 525 372 525 b 257 488 329 525 282 513 b 32 64 154 385 32 150 b 94 -6 32 4 67 -6 b 336 128 161 -6 247 51 b 364 142 336 128 349 142 b 375 121 374 142 375 133 b 325 3 375 103 325 3 b -149 -689 221 -208 -43 -689 b -174 -654 -174 -689 -174 -660 b 174 -129 -174 -482 71 -182 b 190 -112 182 -125 190 -121 b 169 -101 190 -106 182 -101 b -346 -767 0 -101 -346 -517 b -287 -871 -346 -839 -321 -871 b 449 3 -69 -871 249 -368 z m 514 782 b 463 821 514 806 492 821 b 365 744 411 821 365 781 b 417 704 365 721 386 704 b 514 782 471 704 514 747 z m 771 782 b 719 821 771 806 749 821 b 622 744 668 821 622 781 b 674 704 622 721 644 704 b 771 782 729 704 771 747 z "},"¥":{"ha":749,"x_min":0,"x_max":0,"o":"m 364 404 l 361 397 b 199 399 306 397 251 399 b 121 329 146 399 121 340 b 135 318 121 321 128 318 b 299 322 164 318 182 322 l 326 322 b 158 24 265 207 158 42 b 231 -3 158 -3 206 -3 b 304 24 253 -3 281 3 b 482 319 347 53 417 204 b 640 318 515 319 563 318 b 719 389 694 318 719 376 b 703 399 719 397 710 399 b 576 396 674 399 617 396 l 528 396 b 558 435 539 411 549 424 b 606 482 571 449 588 465 l 733 482 b 811 553 786 482 811 540 b 794 563 811 561 801 563 l 788 563 b 690 560 756 560 722 560 b 1126 900 840 692 1043 853 b 1149 926 1142 908 1149 918 b 1075 949 1149 944 1108 949 b 943 928 1075 949 993 949 b 896 886 915 917 908 903 b 600 586 857 836 718 689 b 565 569 588 575 574 569 b 539 610 539 569 539 610 b 571 893 546 714 571 847 b 476 954 571 942 525 954 b 368 928 388 954 368 942 b 376 906 368 922 372 910 b 392 790 386 882 392 857 b 393 724 392 775 393 751 b 388 563 393 678 392 619 l 290 563 b 213 493 238 563 213 504 b 226 482 213 485 219 482 b 236 483 231 482 236 483 b 381 486 275 485 329 486 b 364 404 376 454 371 426 z "},"z":{"ha":506,"x_min":0,"x_max":0,"o":"m 378 -40 b 261 126 378 93 261 88 b 636 451 261 172 636 313 b 461 543 636 532 492 543 b 207 439 318 543 207 482 b 217 425 207 429 210 425 b 351 449 233 425 272 449 b 460 400 443 449 460 422 b 67 139 460 274 67 139 b 0 50 7 117 0 50 b 8 29 0 33 1 29 b 119 44 21 29 51 44 b 247 -93 204 44 247 -10 b -164 -689 247 -289 -58 -689 b -189 -654 -189 -689 -189 -660 b 158 -129 -189 -482 56 -182 b 175 -112 167 -125 175 -121 b 154 -101 175 -106 168 -101 b -361 -767 -15 -101 -361 -517 b -303 -871 -361 -839 -336 -871 b 378 -40 -69 -871 378 -257 z "},"ž":{"ha":506,"x_min":0,"x_max":0,"o":"m 535 703 b 478 760 521 732 496 760 b 465 743 467 760 465 746 b 438 636 464 732 447 664 b 433 618 435 629 433 624 b 449 601 433 608 439 603 b 514 624 461 601 492 608 b 526 628 518 626 522 628 b 542 622 535 628 542 622 b 588 604 554 611 571 604 b 626 636 607 604 615 625 b 719 739 665 685 719 731 b 682 750 719 744 717 750 b 561 700 657 750 599 725 b 546 697 561 700 553 697 b 535 703 542 697 538 699 z m 378 -40 b -303 -871 378 -257 -69 -871 b -361 -767 -336 -871 -361 -839 b 154 -101 -361 -517 -15 -101 b 175 -112 168 -101 175 -106 b 158 -129 175 -121 167 -125 b -189 -654 56 -182 -189 -482 b -164 -689 -189 -660 -189 -689 b 247 -93 -58 -689 247 -289 b 119 44 247 -10 204 44 b 8 29 51 44 21 29 b 0 50 1 29 0 33 b 67 139 0 50 7 117 b 460 400 67 139 460 274 b 351 449 460 422 443 449 b 217 425 272 449 233 425 b 207 439 210 425 207 429 b 461 543 207 482 318 543 b 636 451 492 543 636 532 b 261 126 636 313 261 172 b 378 -40 261 88 378 93 z "},"A":{"ha":804,"x_min":0,"x_max":0,"o":"m 640 -79 b 663 -68 663 -79 663 -68 b 924 582 688 40 832 381 b 1090 932 1026 804 1090 914 b 994 978 1090 971 1032 978 b 963 976 976 978 963 976 b 376 489 831 976 590 736 l 357 467 b 232 458 294 465 243 464 b 136 363 199 446 136 397 b 149 350 136 363 138 350 b 269 363 151 350 215 357 b -24 -35 104 163 -24 -15 b 40 -57 -24 -56 24 -57 b 147 -22 65 -57 133 -53 b 333 301 156 -4 233 167 l 386 371 b 472 374 415 372 444 374 b 661 325 588 374 661 363 b 525 7 661 250 525 92 b 640 -79 525 -24 592 -79 z m 615 464 b 464 467 615 464 544 465 b 810 775 601 628 751 775 b 833 756 824 775 833 768 b 615 464 833 711 739 464 z "},"Æ":{"ha":1267,"x_min":0,"x_max":0,"o":"m 1136 953 b 1075 982 1136 976 1107 982 b 999 974 1039 982 999 974 b 376 486 867 974 590 733 l 357 464 b 232 457 293 463 242 461 b 136 360 199 443 136 396 b 149 349 136 360 138 349 b 271 361 151 349 203 354 b -24 -37 104 160 -24 -18 b 40 -60 -24 -58 24 -60 l 46 -60 b 149 -25 46 -60 133 -57 b 333 299 156 -8 233 164 b 388 368 350 321 368 344 b 472 371 415 369 444 371 b 657 317 588 371 657 361 b 492 -42 657 292 492 10 b 533 -64 492 -62 514 -64 b 663 -24 579 -64 624 -56 b 692 -11 663 -24 671 -11 b 883 -15 719 -11 758 -15 b 1076 -12 954 -15 1031 -14 b 1146 13 1100 -11 1129 -8 b 1271 260 1190 65 1271 214 b 1238 282 1271 282 1249 282 b 1214 269 1215 282 1214 269 b 854 65 1093 78 903 65 b 753 117 821 65 753 67 b 896 403 753 204 879 382 b 1031 460 935 450 978 460 b 1149 456 1065 460 1104 456 b 1285 538 1236 456 1260 479 b 1288 546 1286 542 1288 543 b 1274 556 1288 553 1281 556 b 1264 554 1268 556 1264 554 b 1171 551 1236 554 1208 551 b 1076 554 1115 551 1076 554 b 1007 600 1013 554 1007 581 b 1150 854 1007 617 1061 772 b 1251 883 1175 876 1219 883 b 1358 807 1301 883 1358 875 b 1336 710 1358 753 1336 710 b 1332 699 1333 706 1332 701 b 1354 689 1332 690 1343 689 l 1368 689 b 1568 961 1424 694 1568 915 b 1532 979 1568 976 1540 979 b 1425 956 1446 979 1425 956 b 1360 957 1408 957 1386 957 b 1136 953 1296 957 1211 954 z m 660 463 b 471 464 660 463 568 464 b 869 796 625 633 811 796 b 901 776 885 796 901 789 l 901 775 b 660 463 899 731 783 463 z "}}}
